<svg width="25" height="25" viewBox="0 0 25 25"  xmlns="http://www.w3.org/2000/svg">
<path d="M17.5364 4.46882H19.9826V0.00271826H15.5371C15.1662 -0.0127123 10.6456 -0.0991229 9.47391 4.36904C9.45694 4.41585 9.08249 5.47849 9.08249 7.96075L5.01758 7.97309V12.6573L9.08763 12.6455V25.0007H15.3046V12.6563H19.4194V7.95972H15.3046V6.48199C15.3046 5.56336 15.6919 4.46882 17.5364 4.46882ZM18.3907 8.98791V11.627H14.2759V23.9714H10.1163V11.6137L6.04628 11.6255V8.99871L10.1271 8.98688L10.1163 8.46378C10.0628 5.83442 10.4378 4.72857 10.4548 4.67559C11.466 0.827222 15.3272 1.02062 15.4928 1.0309L18.9539 1.03193V3.44064H17.5364C15.1328 3.44064 14.2764 5.01146 14.2764 6.48148V8.98791H18.3907Z" />
</svg>
