<svg width="18" height="18" viewBox="0 0 18 18" xmlns="http://www.w3.org/2000/svg">
<path d="M16.225 3.24326H1.77482C0.795059 3.24435 0.00109312 4.03831 0 5.01807V12.9819C0.00109312 13.9616 0.795059 14.7557 1.77482 14.7567H16.225C17.2048 14.7557 17.9989 13.9617 18 12.9819V5.01807C17.9989 4.03831 17.2048 3.24435 16.225 3.24326ZM12.1272 9L17.2451 4.68937C17.2794 4.79555 17.2969 4.90647 17.2968 5.01804V12.9819C17.2969 13.0935 17.2794 13.2044 17.2451 13.3106L12.1272 9ZM16.225 3.94638C16.4372 3.94616 16.6445 4.00924 16.8206 4.12755L8.99998 10.7147L1.17933 4.12755C1.35539 4.00924 1.56275 3.94616 1.77485 3.94642L16.225 3.94638ZM0.754942 13.3107C0.720581 13.2045 0.703128 13.0936 0.703165 12.982V5.01807C0.703128 4.9065 0.720618 4.79555 0.754942 4.68937L5.87276 9L0.754942 13.3107ZM1.77482 14.0537C1.56275 14.0539 1.35539 13.9909 1.17933 13.8727L6.41848 9.45984L8.77349 11.4433C8.90433 11.5536 9.09559 11.5536 9.22644 11.4433L11.5814 9.4598L16.8206 13.8725C16.6445 13.9908 16.4371 14.0539 16.225 14.0536H1.77482V14.0537Z"/>
</svg>
