<svg width="25" height="25" viewBox="0 0 25 25"  xmlns="http://www.w3.org/2000/svg">
<path d="M3.375 0.208984C2.45835 0.208984 1.625 0.542334 1 1.16733C0.33335 1.83398 0 2.66729 0 3.54229C0 4.45894 0.375 5.29229 1 5.91729C1.625 6.54229 2.5 6.91729 3.33335 6.87564C3.33335 6.87564 3.375 6.87564 3.4167 6.87564C4.25005 6.87564 5.0417 6.54229 5.6667 5.91729C6.2917 5.29229 6.6667 4.45894 6.6667 3.54229C6.70835 2.66729 6.33335 1.83394 5.70835 1.20894C5.08335 0.542285 4.25 0.208984 3.375 0.208984ZM5.08335 5.33398C4.625 5.79233 4 6.08398 3.33335 6.04233C2.70835 6.04233 2.0417 5.79233 1.58335 5.33398C1.08335 4.87564 0.83335 4.20898 0.83335 3.54233C0.83335 2.87568 1.08335 2.25068 1.58335 1.75068C2.0417 1.29233 2.6667 1.04233 3.375 1.04233C4 1.04233 4.625 1.29233 5.08335 1.75068C5.58335 2.25068 5.83335 2.87568 5.83335 3.54233C5.83335 4.20898 5.58335 4.87564 5.08335 5.33398Z"/>
<path d="M4.99937 7.70898H1.62437C0.957715 7.70898 0.416016 8.25063 0.416016 8.95898V23.5423C0.416016 24.209 0.999365 24.7923 1.66602 24.7923H4.99937C5.66602 24.7923 6.24937 24.209 6.24937 23.584V8.95898C6.24937 8.29228 5.66602 7.70898 4.99937 7.70898ZM5.41602 23.584C5.41602 23.7923 5.20767 23.959 4.99937 23.959H1.66602C1.45767 23.959 1.24937 23.7506 1.24937 23.5423V8.95898C1.24937 8.75063 1.41602 8.54233 1.62437 8.54233H4.99937C5.20772 8.54233 5.41602 8.75068 5.41602 8.95898V23.584Z"/>
<path d="M19.168 7.29297H18.293C16.668 7.29297 15.1263 8.00132 14.1263 9.12632V8.54297C14.1263 8.12632 13.7097 7.70962 13.293 7.70962H9.12632C8.75132 7.70962 8.29297 8.04297 8.29297 8.50127V24.0429C8.29297 24.5013 8.75132 24.7929 9.12632 24.7929H13.7097C14.0847 24.7929 14.543 24.5013 14.543 24.0429V15.0429C14.543 13.6679 15.543 12.5846 16.8347 12.5846C17.5013 12.5846 18.1263 12.8346 18.5847 13.2929C19.0013 13.6679 19.168 14.2513 19.168 15.0013V23.9596C19.168 24.3763 19.5847 24.793 20.0014 24.793H24.168C24.5847 24.793 25.0014 24.3763 25.0014 23.9596V13.2096C25.0013 9.87632 22.4597 7.29297 19.168 7.29297ZM24.168 23.918L24.1263 23.9596H20.043L20.0013 15.0013C20.0013 14.0013 19.7513 13.2513 19.2097 12.7097C18.5847 12.0847 17.7513 11.7513 16.8763 11.7513C15.1263 11.793 13.7513 13.2097 13.7513 15.043V23.9596H9.16797V8.54297H13.293L13.3346 8.58462V11.2096L14.4596 10.0846L14.5013 10.043C15.3346 8.87632 16.7929 8.12632 18.3346 8.12632H19.2096C22.0013 8.12632 24.168 10.3763 24.168 13.2097V23.918Z"/>
</svg>
