<svg width="25" height="25" viewBox="0 0 25 25" xmlns="http://www.w3.org/2000/svg">
<path fill-rule="evenodd" clip-rule="evenodd" d="M12.4983 24.1642C11.5612 24.1642 10.6287 24.0512 9.71833 23.8279C10.1783 23.035 10.5054 22.2904 10.6929 21.6087C10.7908 21.2529 11.1229 19.9487 11.3429 19.0812C12.0267 19.6917 13.0733 20.0983 14.0925 20.0983C18.1121 20.0983 21.0296 16.4408 21.0296 11.4017C21.0296 7.79458 18.0121 4.06333 12.9629 4.06333C9.50333 4.06333 7.37333 5.48292 6.19625 6.67417C4.74458 8.14333 3.91167 10.0946 3.91167 12.0279C3.91167 14.4621 4.93333 16.3317 6.64333 17.0283C7.15458 17.2387 7.66958 16.9787 7.80958 16.4471C7.85375 16.2821 7.94333 15.9221 8.00833 15.6637L8.05375 15.4808C8.185 14.9983 8.07583 14.7571 7.7975 14.43C7.32167 13.8667 7.1 13.1992 7.1 12.3292C7.1 8.84208 9.94958 6.96042 12.6304 6.96042C15.4746 6.96042 17.2408 8.57417 17.2408 11.1721C17.2408 14.5962 15.7725 17.1783 13.8263 17.1783C13.3183 17.1783 12.8625 16.9704 12.5763 16.6079C12.3058 16.2671 12.2175 15.8254 12.3267 15.3646C12.4546 14.8225 12.6292 14.2562 12.7987 13.7079C13.11 12.6996 13.4042 11.7479 13.4042 10.9821C13.4042 9.64833 12.5817 8.7525 11.3583 8.7525C9.81708 8.7525 8.61 10.3087 8.61 12.2958C8.61 13.2379 8.855 13.9517 8.97583 14.2462C8.7725 15.1079 7.66458 19.8037 7.45333 20.6958C7.3025 21.3354 7.22458 22.0746 7.22 22.9012C3.31958 20.9208 0.833333 16.9075 0.833333 12.4992C0.833333 6.06625 6.06583 0.833333 12.4983 0.833333C18.9304 0.833333 24.1629 6.06625 24.1629 12.4992C24.1629 18.9312 18.9304 24.1642 12.4983 24.1642ZM12.4983 0C5.60667 0 0 5.60708 0 12.4992C0 17.4587 2.93667 21.9517 7.48167 23.9462C7.535 23.9696 7.59208 23.9812 7.64875 23.9812C7.65208 23.9817 7.655 23.9817 7.65708 23.9812C7.8875 23.9812 8.07375 23.7946 8.07375 23.5646C8.07375 23.5304 8.06958 23.4971 8.0625 23.4654C8.0275 22.4717 8.09542 21.6042 8.26417 20.8875C8.49667 19.9046 9.81875 14.3017 9.81875 14.3017C9.84125 14.2067 9.82958 14.1067 9.78542 14.0192C9.78208 14.0125 9.44333 13.3242 9.44333 12.2958C9.44333 10.7758 10.2846 9.58583 11.3583 9.58583C12.4833 9.58583 12.5708 10.6546 12.5708 10.9821C12.5708 11.6221 12.295 12.5158 12.0029 13.4617C11.8296 14.0233 11.65 14.6037 11.5158 15.1729C11.3467 15.8867 11.4913 16.58 11.9221 17.125C12.3683 17.6887 13.0621 18.0117 13.8263 18.0117C16.2479 18.0117 18.0742 15.0717 18.0742 11.1721C18.0742 8.1075 15.9375 6.12708 12.6304 6.12708C9.0025 6.12708 6.26667 8.79333 6.26667 12.3292C6.26667 13.3921 6.55917 14.2554 7.16167 14.9687C7.25833 15.0821 7.275 15.1183 7.27708 15.1229C7.2775 15.1279 7.27833 15.1579 7.2475 15.2696L7.19958 15.4612C7.13583 15.7162 7.04708 16.0708 7.00375 16.2346C6.99958 16.2504 6.99542 16.2617 6.99375 16.2683C6.98583 16.2667 6.97375 16.2633 6.95875 16.2571C5.55167 15.6837 4.745 14.1421 4.745 12.0279C4.745 7.10875 9.55083 4.89667 12.9629 4.89667C17.4904 4.89667 20.1962 8.20417 20.1962 11.4017C20.1962 16.0312 17.6863 19.265 14.0925 19.265C12.8958 19.265 11.84 18.6137 11.5104 17.9837C11.4304 17.8308 11.2621 17.7425 11.0925 17.7633C10.9208 17.7837 10.7796 17.9075 10.7371 18.0754C10.7304 18.1029 10.035 20.8608 9.88958 21.3875C9.68625 22.1254 9.29375 22.9587 8.72292 23.8637C8.65333 23.9742 8.63958 24.1108 8.68583 24.2329C8.73167 24.3554 8.8325 24.4487 8.9575 24.4854C10.1092 24.8254 11.3 24.9975 12.4983 24.9975C19.3896 24.9975 24.9963 19.3908 24.9963 12.4992C24.9963 5.60708 19.3896 0 12.4983 0Z" />
</svg>
