<svg width="1728" height="990" viewBox="0 0 1728 990" fill="none" xmlns="http://www.w3.org/2000/svg">
<path d="M-57.0945 939.202H1738.01V728.387H1740.96V723.733H1689.51V709.518H1684.53V723.733H1679.51V713.181H1670.85V708.366H1668.13V713.181H1664.01V708.366H1661.29V713.181H1656.52V723.733H1651.75V728.387H1654.7V777.071H1629.33V773.223H1624.72V777.071H1617.49V690.879H1621.43V687.63H1570.56V683.598H1563.05V687.63H1556.73V673.507H1542.93V687.63H1532.75V690.879H1536.69V738.041H1506.8V731.659H1490.38V738.041H1484.8V761.311H1478.7V752.879H1470.01V748.063H1467.29V752.879H1463.17V748.063H1460.45V752.879H1455.68V761.311H1429.69V741.497H1419.53V687.63H1405.59V684.059H1398.68V687.63H1393.75V680.58H1378.96V687.63H1373.43V761.334H1364.56V764.214H1367.18V799.511H1346.17V794.466H1341.24V799.511H1336.98V701.085H1320.71V697.376H1305.28V701.085H1301.01V683.944H1303.32V679.912H1279.19V683.944H1281.5V701.085H1270.97V723.733H1260.49V709.518H1255.51V723.733H1250.49V713.181H1241.8V708.366H1239.08V713.181H1234.96V708.366H1232.24V713.181H1227.47V723.733H1181.74V728.387H1184.68V777.071H1172.87V772.831H1151.44V777.071H1147.5V826.099H1137.34V789.259H1124.73V785.135H1113.81V789.259H1108.81V781.679H1110.45V778.822H1093.38V781.679H1095.01V789.259H1090.43V688.667H1093.38V683.391H1061.65V669.175H1056.68V683.391H1051.65V672.838H1042.97V668.023H1040.25V672.838H1036.12V668.023H1033.4V672.838H1028.64V683.391H1023.87V688.667H1026.82V738.041H996.933V731.659H980.505V738.041H974.93V785.204H953.364V770.02H943.181V728.756H929.242V726.014H922.33V728.756H917.445V723.342H902.654V728.756H897.124V785.181H888.254V787.393H890.88V791.217H875.605V787.83H876.757V786.287H864.707V787.83H865.859V791.217H860.675V720.531H844.409V717.697H828.972V720.531H824.71V707.398H827.014V704.311H802.891V707.398H805.195V720.531H794.666V757.533H778.4V753.847H762.963V757.533H758.701V750.483H761.005V746.451H736.882V750.483H739.186V757.533H728.657V728.364H731.859V723.71H678.937V713.158H655.943V723.71H624.724V709.495H619.747V723.71H614.725V713.158H606.039V708.343H603.32V713.158H599.196V708.343H596.477V713.158H591.708V723.71H586.939V728.364H589.888V777.048H564.521V773.2H559.913V777.048H552.678V690.856H556.618V687.607H505.746V683.575H498.235V687.607H491.922V673.483H478.121V687.607H467.938V690.856H471.878V738.018H441.995V731.636H425.567V738.018H419.992V761.288H413.886V752.856H405.2V748.04H402.481V752.856H398.357V748.04H395.639V752.856H390.869V761.288H364.88V741.474H354.72V687.607H340.781V684.036H333.869V687.607H328.938V680.557H314.147V687.607H308.617V761.311H299.747V764.191H302.373V799.488H281.338V794.443H276.407V799.488H272.145V701.062H255.879V697.353H240.442V701.062H236.18V683.921H238.484V679.889H214.361V683.921H216.665V701.062H206.136V723.71H195.653V709.495H190.676V723.71H185.653V713.158H176.967V708.343H174.249V713.158H170.125V708.343H167.406V713.158H162.637V723.71H116.902V728.364H119.852V777.048H108.032V772.808H86.6051V777.048H82.6652V826.076H72.5047V789.236H59.9018V785.112H48.9809V789.236H43.9813V781.656H45.6171V778.799H28.5446V781.656H30.1805V789.236H25.5954V688.644H28.5446V683.368H-3.18132V669.152H-8.15787V683.368H-13.1805V672.815H-21.8666V668H-24.5853V672.815H-28.7094V668H-31.4282V672.815H-36.1973V683.368H-40.9666V688.644H-38.0176V738.018H-57.1406V939.202H-57.0945ZM1713.98 841.698H1725.59V853.586H1713.98V841.698ZM1713.98 816.653H1725.59V828.542H1713.98V816.653ZM1713.98 791.609H1725.59V803.497H1713.98V791.609ZM1713.98 766.564H1725.59V778.453H1713.98V766.564ZM1713.98 741.52H1725.59V753.409H1713.98V741.52ZM1689.51 841.698H1701.12V853.586H1689.51V841.698ZM1689.51 816.653H1701.12V828.542H1689.51V816.653ZM1689.51 791.609H1701.12V803.497H1689.51V791.609ZM1689.51 766.564H1701.12V778.453H1689.51V766.564ZM1689.51 741.52H1701.12V753.409H1689.51V741.52ZM1665.04 841.698H1676.65V853.586H1665.04V841.698ZM1665.04 816.653H1676.65V828.542H1665.04V816.653ZM1665.04 791.609H1676.65V803.497H1665.04V791.609ZM1665.04 766.564H1676.65V778.453H1665.04V766.564ZM1665.04 741.52H1676.65V753.409H1665.04V741.52ZM1642.9 815.685H1647.51V835.062H1642.9V815.685ZM1642.9 784.789H1647.51V804.166H1642.9V784.789ZM1633.82 815.685H1638.43V835.062H1633.82V815.685ZM1633.82 784.789H1638.43V804.166H1633.82V784.789ZM1624.75 815.685H1629.35V835.062H1624.75V815.685ZM1624.75 784.789H1629.35V804.166H1624.75V784.789ZM1602.93 830.408H1606.66V839.716H1602.93V830.408ZM1602.93 812.644H1606.66V821.952H1602.93V812.644ZM1602.93 794.857H1606.66V804.166H1602.93V794.857ZM1602.93 777.071H1606.66V786.379H1602.93V777.071ZM1602.93 759.307H1606.66V768.615H1602.93V759.307ZM1602.93 741.52H1606.66V750.828H1602.93V741.52ZM1602.93 723.756H1606.66V733.065H1602.93V723.756ZM1602.93 705.97H1606.66V715.278H1602.93V705.97ZM1596.31 830.408H1600.05V839.716H1596.31V830.408ZM1596.31 812.644H1600.05V821.952H1596.31V812.644ZM1596.31 794.857H1600.05V804.166H1596.31V794.857ZM1596.31 777.071H1600.05V786.379H1596.31V777.071ZM1596.31 759.307H1600.05V768.615H1596.31V759.307ZM1596.31 741.52H1600.05V750.828H1596.31V741.52ZM1596.31 723.756H1600.05V733.065H1596.31V723.756ZM1596.31 705.97H1600.05V715.278H1596.31V705.97ZM1578.57 830.408H1582.31V839.716H1578.57V830.408ZM1578.57 812.644H1582.31V821.952H1578.57V812.644ZM1578.57 794.857H1582.31V804.166H1578.57V794.857ZM1578.57 777.071H1582.31V786.379H1578.57V777.071ZM1578.57 759.307H1582.31V768.615H1578.57V759.307ZM1578.57 741.52H1582.31V750.828H1578.57V741.52ZM1578.57 723.756H1582.31V733.065H1578.57V723.756ZM1578.57 705.97H1582.31V715.278H1578.57V705.97ZM1571.94 830.408H1575.67V839.716H1571.94V830.408ZM1571.94 812.644H1575.67V821.952H1571.94V812.644ZM1571.94 794.857H1575.67V804.166H1571.94V794.857ZM1571.94 777.071H1575.67V786.379H1571.94V777.071ZM1571.94 759.307H1575.67V768.615H1571.94V759.307ZM1571.94 741.52H1575.67V750.828H1571.94V741.52ZM1571.94 723.756H1575.67V733.065H1571.94V723.756ZM1571.94 705.97H1575.67V715.278H1571.94V705.97ZM1554.22 830.408H1557.95V839.716H1554.22V830.408ZM1554.22 812.644H1557.95V821.952H1554.22V812.644ZM1554.22 794.857H1557.95V804.166H1554.22V794.857ZM1554.22 777.071H1557.95V786.379H1554.22V777.071ZM1554.22 759.307H1557.95V768.615H1554.22V759.307ZM1554.22 741.52H1557.95V750.828H1554.22V741.52ZM1554.22 723.756H1557.95V733.065H1554.22V723.756ZM1554.22 705.97H1557.95V715.278H1554.22V705.97ZM1547.59 830.408H1551.32V839.716H1547.59V830.408ZM1547.59 812.644H1551.32V821.952H1547.59V812.644ZM1547.59 794.857H1551.32V804.166H1547.59V794.857ZM1547.59 777.071H1551.32V786.379H1547.59V777.071ZM1547.59 759.307H1551.32V768.615H1547.59V759.307ZM1547.59 741.52H1551.32V750.828H1547.59V741.52ZM1547.59 723.756H1551.32V733.065H1547.59V723.756ZM1547.59 705.97H1551.32V715.278H1547.59V705.97ZM1494.02 842.343H1500.75V849.232H1494.02V842.343ZM1494.02 828.864H1500.75V835.753H1494.02V828.864ZM1494.02 815.409H1500.75V822.298H1494.02V815.409ZM1494.02 801.954H1500.75V808.843H1494.02V801.954ZM1494.02 788.475H1500.75V795.364H1494.02V788.475ZM1494.02 775.02H1500.75V781.909H1494.02V775.02ZM1494.02 761.565H1500.75V768.454H1494.02V761.565ZM1494.02 748.087H1500.75V754.975H1494.02V748.087ZM1426.86 831.836H1432.57V841.145H1426.86V831.836ZM1426.86 814.073H1432.57V823.381H1426.86V814.073ZM1426.86 796.286H1432.57V805.594H1426.86V796.286ZM1426.86 778.499H1432.57V787.807H1426.86V778.499ZM1416.7 831.836H1422.41V841.145H1416.7V831.836ZM1416.7 814.073H1422.41V823.381H1416.7V814.073ZM1416.7 796.286H1422.41V805.594H1416.7V796.286ZM1416.7 778.499H1422.41V787.807H1416.7V778.499ZM1409.83 736.728H1414.02V748.11H1409.83V736.728ZM1409.83 715.209H1414.02V726.59H1409.83V715.209ZM1409.83 693.689H1414.02V705.071H1409.83V693.689ZM1389.44 831.836H1395.15V841.145H1389.44V831.836ZM1389.44 814.073H1395.15V823.381H1389.44V814.073ZM1389.44 796.286H1395.15V805.594H1389.44V796.286ZM1389.44 778.499H1395.15V787.807H1389.44V778.499ZM1379.26 831.836H1384.97V841.145H1379.26V831.836ZM1379.26 814.073H1384.97V823.381H1379.26V814.073ZM1379.26 796.286H1384.97V805.594H1379.26V796.286ZM1379.26 778.499H1384.97V787.807H1379.26V778.499ZM1307.56 784.259H1314.17V792.577H1307.56V784.259ZM1307.56 761.334H1314.17V769.652H1307.56V761.334ZM1307.56 738.387H1314.17V746.704H1307.56V738.387ZM1307.56 715.462H1314.17V723.779H1307.56V715.462ZM1294.52 784.259H1301.13V792.577H1294.52V784.259ZM1294.52 761.334H1301.13V769.652H1294.52V761.334ZM1294.52 738.387H1301.13V746.704H1294.52V738.387ZM1294.52 715.462H1301.13V723.779H1294.52V715.462ZM1281.5 784.259H1288.11V792.577H1281.5V784.259ZM1281.5 761.334H1288.11V769.652H1281.5V761.334ZM1281.5 738.387H1288.11V746.704H1281.5V738.387ZM1281.5 715.462H1288.11V723.779H1281.5V715.462ZM1250.28 825.777H1255.6V835.776H1250.28V825.777ZM1250.28 804.695H1255.6V814.695H1250.28V804.695ZM1250.28 783.637H1255.6V793.636H1250.28V783.637ZM1250.28 762.579H1255.6V772.578H1250.28V762.579ZM1250.28 741.52H1255.6V751.519H1250.28V741.52ZM1239.06 825.777H1244.38V835.776H1239.06V825.777ZM1239.06 804.695H1244.38V814.695H1239.06V804.695ZM1239.06 783.637H1244.38V793.636H1239.06V783.637ZM1239.06 762.579H1244.38V772.578H1239.06V762.579ZM1239.06 741.52H1244.38V751.519H1239.06V741.52ZM1227.84 825.777H1233.16V835.776H1227.84V825.777ZM1227.84 804.695H1233.16V814.695H1227.84V804.695ZM1227.84 783.637H1233.16V793.636H1227.84V783.637ZM1227.84 762.579H1233.16V772.578H1227.84V762.579ZM1227.84 741.52H1233.16V751.519H1227.84V741.52ZM1172.91 803.774H1177.52V815.685H1172.91V803.774ZM1172.91 784.789H1177.52V796.701H1172.91V784.789ZM1163.83 803.774H1168.44V815.685H1163.83V803.774ZM1163.83 784.789H1168.44V796.701H1163.83V784.789ZM1154.76 803.774H1159.36V815.685H1154.76V803.774ZM1154.76 784.789H1159.36V796.701H1154.76V784.789ZM1125.26 820.432H1129.46V831.813H1125.26V820.432ZM1125.26 798.912H1129.46V810.294H1125.26V798.912ZM1058.13 824.141H1061.86V833.449H1058.13V824.141ZM1058.13 806.354H1061.86V815.662H1058.13V806.354ZM1058.13 788.591H1061.86V797.899H1058.13V788.591ZM1058.13 770.804H1061.86V780.112H1058.13V770.804ZM1058.13 753.017H1061.86V762.325H1058.13V753.017ZM1058.13 735.253H1061.86V744.561H1058.13V735.253ZM1058.13 717.467H1061.86V726.775H1058.13V717.467ZM1058.13 699.703H1061.86V709.011H1058.13V699.703ZM1051.51 824.141H1055.25V833.449H1051.51V824.141ZM1051.51 806.354H1055.25V815.662H1051.51V806.354ZM1051.51 788.591H1055.25V797.899H1051.51V788.591ZM1051.51 770.804H1055.25V780.112H1051.51V770.804ZM1051.51 753.017H1055.25V762.325H1051.51V753.017ZM1051.51 735.253H1055.25V744.561H1051.51V735.253ZM1051.51 717.467H1055.25V726.775H1051.51V717.467ZM1051.51 699.703H1055.25V709.011H1051.51V699.703ZM1040.94 824.141H1044.67V833.449H1040.94V824.141ZM1040.94 806.354H1044.67V815.662H1040.94V806.354ZM1040.94 788.591H1044.67V797.899H1040.94V788.591ZM1040.94 770.804H1044.67V780.112H1040.94V770.804ZM1040.94 753.017H1044.67V762.325H1040.94V753.017ZM1040.94 735.253H1044.67V744.561H1040.94V735.253ZM1040.94 717.467H1044.67V726.775H1040.94V717.467ZM1040.94 699.703H1044.67V709.011H1040.94V699.703ZM1034.33 824.141H1038.06V833.449H1034.33V824.141ZM1034.33 806.354H1038.06V815.662H1034.33V806.354ZM1034.33 788.591H1038.06V797.899H1034.33V788.591ZM1034.33 770.804H1038.06V780.112H1034.33V770.804ZM1034.33 753.017H1038.06V762.325H1034.33V753.017ZM1034.33 735.253H1038.06V744.561H1034.33V735.253ZM1034.33 717.467H1038.06V726.775H1034.33V717.467ZM1034.33 699.703H1038.06V709.011H1034.33V699.703ZM984.399 841.283H993.892V849.232H984.399V841.283ZM984.399 825.754H993.892V833.703H984.399V825.754ZM984.399 810.225H993.892V818.174H984.399V810.225ZM984.399 794.696H993.892V802.645H984.399V794.696ZM984.399 779.167H993.892V787.116H984.399V779.167ZM984.399 763.615H993.892V771.564H984.399V763.615ZM984.399 748.087H993.892V756.035H984.399V748.087ZM950.53 839.209H956.244V846.328H950.53V839.209ZM950.53 825.593H956.244V832.712H950.53V825.593ZM950.53 811.976H956.244V819.095H950.53V811.976ZM950.53 798.383H956.244V805.502H950.53V798.383ZM940.37 839.209H946.084V846.328H940.37V839.209ZM940.37 825.593H946.084V832.712H940.37V825.593ZM940.37 811.976H946.084V819.095H940.37V811.976ZM940.37 798.383H946.084V805.502H940.37V798.383ZM933.504 766.38H937.697V775.089H933.504V766.38ZM933.504 749.907H937.697V758.616H933.504V749.907ZM933.504 733.433H937.697V742.142H933.504V733.433ZM913.114 839.209H918.828V846.328H913.114V839.209ZM913.114 825.593H918.828V832.712H913.114V825.593ZM913.114 811.976H918.828V819.095H913.114V811.976ZM913.114 798.383H918.828V805.502H913.114V798.383ZM902.953 839.209H908.667V846.328H902.953V839.209ZM902.953 825.593H908.667V832.712H902.953V825.593ZM902.953 811.976H908.667V819.095H902.953V811.976ZM902.953 798.383H908.667V805.502H902.953V798.383ZM866.297 831.998H875.766V839.946H866.297V831.998ZM866.297 816.446H875.766V824.395H866.297V816.446ZM866.297 800.917H875.766V808.866H866.297V800.917ZM831.23 784.236H837.842V790.618H831.23V784.236ZM831.23 766.68H837.842V773.062H831.23V766.68ZM831.23 749.123H837.842V755.505H831.23V749.123ZM831.23 731.567H837.842V737.949H831.23V731.567ZM818.213 784.236H824.825V790.618H818.213V784.236ZM818.213 766.68H824.825V773.062H818.213V766.68ZM818.213 749.123H824.825V755.505H818.213V749.123ZM818.213 731.567H824.825V737.949H818.213V731.567ZM805.172 784.236H811.785V790.618H805.172V784.236ZM805.172 766.68H811.785V773.062H805.172V766.68ZM805.172 749.123H811.785V755.505H805.172V749.123ZM805.172 731.567H811.785V737.949H805.172V731.567ZM765.198 840.73H771.81V849.047H765.198V840.73ZM765.198 817.782H771.81V826.099H765.198V817.782ZM765.198 794.857H771.81V803.175H765.198V794.857ZM765.198 771.933H771.81V780.25H765.198V771.933ZM752.18 840.73H758.793V849.047H752.18V840.73ZM752.18 817.782H758.793V826.099H752.18V817.782ZM752.18 794.857H758.793V803.175H752.18V794.857ZM752.18 771.933H758.793V780.25H752.18V771.933ZM739.14 840.73H745.752V849.047H739.14V840.73ZM739.14 817.782H745.752V826.099H739.14V817.782ZM739.14 794.857H745.752V803.175H739.14V794.857ZM739.14 771.933H745.752V780.25H739.14V771.933ZM704.833 841.698H716.446V853.586H704.833V841.698ZM704.833 816.653H716.446V828.542H704.833V816.653ZM704.833 791.609H716.446V803.497H704.833V791.609ZM704.833 766.564H716.446V778.453H704.833V766.564ZM704.833 741.52H716.446V753.409H704.833V741.52ZM680.365 841.698H691.977V853.586H680.365V841.698ZM680.365 816.653H691.977V828.542H680.365V816.653ZM680.365 791.609H691.977V803.497H680.365V791.609ZM680.365 766.564H691.977V778.453H680.365V766.564ZM680.365 741.52H691.977V753.409H680.365V741.52ZM655.897 841.698H660.758V853.586H655.897V841.698ZM655.897 816.653H660.758V828.542H655.897V816.653ZM655.897 791.609H660.758V803.497H655.897V791.609ZM655.897 766.564H660.758V778.453H655.897V766.564ZM655.897 741.52H660.758V753.409H655.897V741.52ZM624.655 841.698H636.267V853.586H624.655V841.698ZM624.655 816.653H636.267V828.542H624.655V816.653ZM624.655 791.609H636.267V803.497H624.655V791.609ZM624.655 766.564H636.267V778.453H624.655V766.564ZM624.655 741.52H636.267V753.409H624.655V741.52ZM600.187 841.698H611.798V853.586H600.187V841.698ZM600.187 816.653H611.798V828.542H600.187V816.653ZM600.187 791.609H611.798V803.497H600.187V791.609ZM600.187 766.564H611.798V778.453H600.187V766.564ZM600.187 741.52H611.798V753.409H600.187V741.52ZM578.045 815.685H582.653V835.062H578.045V815.685ZM578.045 784.789H582.653V804.166H578.045V784.789ZM568.967 815.685H573.575V835.062H568.967V815.685ZM568.967 784.789H573.575V804.166H568.967V784.789ZM559.913 815.685H564.521V835.062H559.913V815.685ZM559.913 784.789H564.521V804.166H559.913V784.789ZM538.071 830.408H541.803V839.716H538.071V830.408ZM538.071 812.644H541.803V821.952H538.071V812.644ZM538.071 794.857H541.803V804.166H538.071V794.857ZM538.071 777.071H541.803V786.379H538.071V777.071ZM538.071 759.307H541.803V768.615H538.071V759.307ZM538.071 741.52H541.803V750.828H538.071V741.52ZM538.071 723.756H541.803V733.065H538.071V723.756ZM538.071 705.97H541.803V715.278H538.071V705.97ZM531.458 830.408H535.191V839.716H531.458V830.408ZM531.458 812.644H535.191V821.952H531.458V812.644ZM531.458 794.857H535.191V804.166H531.458V794.857ZM531.458 777.071H535.191V786.379H531.458V777.071ZM531.458 759.307H535.191V768.615H531.458V759.307ZM531.458 741.52H535.191V750.828H531.458V741.52ZM531.458 723.756H535.191V733.065H531.458V723.756ZM531.458 705.97H535.191V715.278H531.458V705.97ZM513.718 830.408H517.45V839.716H513.718V830.408ZM513.718 812.644H517.45V821.952H513.718V812.644ZM513.718 794.857H517.45V804.166H513.718V794.857ZM513.718 777.071H517.45V786.379H513.718V777.071ZM513.718 759.307H517.45V768.615H513.718V759.307ZM513.718 741.52H517.45V750.828H513.718V741.52ZM513.718 723.756H517.45V733.065H513.718V723.756ZM513.718 705.97H517.45V715.278H513.718V705.97ZM507.106 830.408H510.838V839.716H507.106V830.408ZM507.106 812.644H510.838V821.952H507.106V812.644ZM507.106 794.857H510.838V804.166H507.106V794.857ZM507.106 777.071H510.838V786.379H507.106V777.071ZM507.106 759.307H510.838V768.615H507.106V759.307ZM507.106 741.52H510.838V750.828H507.106V741.52ZM507.106 723.756H510.838V733.065H507.106V723.756ZM507.106 705.97H510.838V715.278H507.106V705.97ZM489.365 830.408H493.097V839.716H489.365V830.408ZM489.365 812.644H493.097V821.952H489.365V812.644ZM489.365 794.857H493.097V804.166H489.365V794.857ZM489.365 777.071H493.097V786.379H489.365V777.071ZM489.365 759.307H493.097V768.615H489.365V759.307ZM489.365 741.52H493.097V750.828H489.365V741.52ZM489.365 723.756H493.097V733.065H489.365V723.756ZM489.365 705.97H493.097V715.278H489.365V705.97ZM482.752 830.408H486.485V839.716H482.752V830.408ZM482.752 812.644H486.485V821.952H482.752V812.644ZM482.752 794.857H486.485V804.166H482.752V794.857ZM482.752 777.071H486.485V786.379H482.752V777.071ZM482.752 759.307H486.485V768.615H482.752V759.307ZM482.752 741.52H486.485V750.828H482.752V741.52ZM482.752 723.756H486.485V733.065H482.752V723.756ZM482.752 705.97H486.485V715.278H482.752V705.97ZM429.162 842.343H435.889V849.232H429.162V842.343ZM429.162 828.864H435.889V835.753H429.162V828.864ZM429.162 815.409H435.889V822.298H429.162V815.409ZM429.162 801.954H435.889V808.843H429.162V801.954ZM429.162 788.475H435.889V795.364H429.162V788.475ZM429.162 775.02H435.889V781.909H429.162V775.02ZM429.162 761.565H435.889V768.454H429.162V761.565ZM429.162 748.087H435.889V754.975H429.162V748.087ZM362 831.836H367.714V841.145H362V831.836ZM362 814.073H367.714V823.381H362V814.073ZM362 796.286H367.714V805.594H362V796.286ZM362 778.499H367.714V787.807H362V778.499ZM351.84 831.836H357.554V841.145H351.84V831.836ZM351.84 814.073H357.554V823.381H351.84V814.073ZM351.84 796.286H357.554V805.594H351.84V796.286ZM351.84 778.499H357.554V787.807H351.84V778.499ZM344.974 736.728H349.167V748.11H344.974V736.728ZM344.974 715.209H349.167V726.59H344.974V715.209ZM344.974 693.689H349.167V705.071H344.974V693.689ZM324.584 831.836H330.298V841.145H324.584V831.836ZM324.584 814.073H330.298V823.381H324.584V814.073ZM324.584 796.286H330.298V805.594H324.584V796.286ZM324.584 778.499H330.298V787.807H324.584V778.499ZM314.423 831.836H320.137V841.145H314.423V831.836ZM314.423 814.073H320.137V823.381H314.423V814.073ZM314.423 796.286H320.137V805.594H314.423V796.286ZM314.423 778.499H320.137V787.807H314.423V778.499ZM242.7 784.259H249.313V792.577H242.7V784.259ZM242.7 761.334H249.313V769.652H242.7V761.334ZM242.7 738.387H249.313V746.704H242.7V738.387ZM242.7 715.462H249.313V723.779H242.7V715.462ZM229.683 784.259H236.295V792.577H229.683V784.259ZM229.683 761.334H236.295V769.652H229.683V761.334ZM229.683 738.387H236.295V746.704H229.683V738.387ZM229.683 715.462H236.295V723.779H229.683V715.462ZM216.642 784.259H223.254V792.577H216.642V784.259ZM216.642 761.334H223.254V769.652H216.642V761.334ZM216.642 738.387H223.254V746.704H216.642V738.387ZM216.642 715.462H223.254V723.779H216.642V715.462ZM185.423 825.777H190.745V835.776H185.423V825.777ZM185.423 804.695H190.745V814.695H185.423V804.695ZM185.423 783.637H190.745V793.636H185.423V783.637ZM185.423 762.579H190.745V772.578H185.423V762.579ZM185.423 741.52H190.745V751.519H185.423V741.52ZM174.202 825.777H179.525V835.776H174.202V825.777ZM174.202 804.695H179.525V814.695H174.202V804.695ZM174.202 783.637H179.525V793.636H174.202V783.637ZM174.202 762.579H179.525V772.578H174.202V762.579ZM174.202 741.52H179.525V751.519H174.202V741.52ZM163.005 825.777H168.327V835.776H163.005V825.777ZM163.005 804.695H168.327V814.695H163.005V804.695ZM163.005 783.637H168.327V793.636H163.005V783.637ZM163.005 762.579H168.327V772.578H163.005V762.579ZM163.005 741.52H168.327V751.519H163.005V741.52ZM108.055 803.774H112.663V815.685H108.055V803.774ZM108.055 784.789H112.663V796.701H108.055V784.789ZM98.9775 803.774H103.585V815.685H98.9775V803.774ZM98.9775 784.789H103.585V796.701H98.9775V784.789ZM89.8997 803.774H94.5077V815.685H89.8997V803.774ZM89.8997 784.789H94.5077V796.701H89.8997V784.789ZM60.4088 820.432H64.602V831.813H60.4088V820.432ZM60.4088 798.912H64.602V810.294H60.4088V798.912ZM-6.70635 824.141H-2.9739V833.449H-6.70635V824.141ZM-6.70635 806.354H-2.9739V815.662H-6.70635V806.354ZM-6.70635 788.591H-2.9739V797.899H-6.70635V788.591ZM-6.70635 770.804H-2.9739V780.112H-6.70635V770.804ZM-6.70635 753.017H-2.9739V762.325H-6.70635V753.017ZM-6.70635 735.253H-2.9739V744.561H-6.70635V735.253ZM-6.70635 717.467H-2.9739V726.775H-6.70635V717.467ZM-6.70635 699.703H-2.9739V709.011H-6.70635V699.703ZM-13.3418 824.141H-9.60939V833.449H-13.3418V824.141ZM-13.3418 806.354H-9.60939V815.662H-13.3418V806.354ZM-13.3418 788.591H-9.60939V797.899H-13.3418V788.591ZM-13.3418 770.804H-9.60939V780.112H-13.3418V770.804ZM-13.3418 753.017H-9.60939V762.325H-13.3418V753.017ZM-13.3418 735.253H-9.60939V744.561H-13.3418V735.253ZM-13.3418 717.467H-9.60939V726.775H-13.3418V717.467ZM-13.3418 699.703H-9.60939V709.011H-13.3418V699.703ZM-23.9172 824.141H-20.1847V833.449H-23.9172V824.141ZM-23.9172 806.354H-20.1847V815.662H-23.9172V806.354ZM-23.9172 788.591H-20.1847V797.899H-23.9172V788.591ZM-23.9172 770.804H-20.1847V780.112H-23.9172V770.804ZM-23.9172 753.017H-20.1847V762.325H-23.9172V753.017ZM-23.9172 735.253H-20.1847V744.561H-23.9172V735.253ZM-23.9172 717.467H-20.1847V726.775H-23.9172V717.467ZM-23.9172 699.703H-20.1847V709.011H-23.9172V699.703ZM-30.5296 824.141H-26.7972V833.449H-30.5296V824.141ZM-30.5296 806.354H-26.7972V815.662H-30.5296V806.354ZM-30.5296 788.591H-26.7972V797.899H-30.5296V788.591ZM-30.5296 770.804H-26.7972V780.112H-30.5296V770.804ZM-30.5296 753.017H-26.7972V762.325H-30.5296V753.017ZM-30.5296 735.253H-26.7972V744.561H-30.5296V735.253ZM-30.5296 717.467H-26.7972V726.775H-30.5296V717.467ZM-30.5296 699.703H-26.7972V709.011H-30.5296V699.703Z" fill="#32702D"/>
<path d="M-62 759.722V767.371H-57.1386V989.452H914.775V988.876H1008.75V989.452H1740.98V767.371H1745.85V759.722H1724V742.35H1686.15V759.722H1599.04V767.371H1604.31V815.363H1586.96V803.751H1590.74V797.116H1551.04V803.751H1554.82V815.363H1547.79V809.281H1522.38V815.363H1495.61V754.469H1478.26V732.858H1482.04V727.766H1442.34V732.858H1446.12V754.469H1439.09V749.815H1413.68V754.469H1386.91V870.82H1378.38V865.268H1380.27V862.733H1360.41V865.268H1362.3V870.82H1337.16V864.53H1341.5V860.89H1326.89V767.993H1317.76V759.1H1293.43V767.993H1285.32V763.478H1273.97V767.993H1251.02V835.915H1234.27V860.89H1198.76V783.269H1189.57V772.763H1162.55V783.269H1113.33V701.984H1118.19V693.344H1110.36V675.972H1102.5V668.046H1098.03V675.972H1091.26V668.046H1086.79V675.972H1072.51V693.344H1064.26V669.936H1056.08V693.344H1003.85V702.007H1008.71V867.595H1001.17V855.13H1003.85V850.43H975.761V855.13H978.434V867.595H970.209V860.821H952.237V867.595H931.478V928.236H914.728V847.504H908.231V840.523H872.957V847.504H853.489V767.371H858.35V759.722H783.079V742.35H775.222V734.424H770.752V742.35H763.979V734.424H759.509V742.35H745.224V759.722H736.976V736.313H728.797V759.722H711.54V722.444H694.191V694.22H697.97V687.584H658.272V694.22H662.051V722.444H655.023V716.361H629.61V722.444H602.838V884.437H595.811V876.142H587.701V884.437H553.095V826.353H557.426V821.607H542.819V700.302H533.695V688.69H509.365V700.302H501.255V694.404H489.897V700.302H466.949V788.983H450.199V821.607H407.414V807.737H399.557V799.811H395.088V807.737H388.314V799.811H383.844V807.737H369.56V821.607H359.514V783.292H350.321V772.786H323.295V783.292H274.174V705.647H280.672V700.302H263.899V677.055H241.181V700.302H230.767V693.667H218.395V700.302H134.645V705.647H141.142V847.504H129.254V841.168H121.674V847.504H79.9024V767.371H84.7639V759.722H76.9303V742.35H69.0738V734.424H64.604V742.35H57.8303V734.424H53.3606V742.35H39.0758V759.722H30.8275V736.313H22.6484V759.722H-62ZM1704.9 953.856H1724.03V973.417H1704.9V953.856ZM1704.9 912.638H1724.03V932.198H1704.9V912.638ZM1704.9 871.419H1724.03V890.98H1704.9V871.419ZM1704.9 830.201H1724.03V849.762H1704.9V830.201ZM1704.9 788.983H1724.03V808.543H1704.9V788.983ZM1664.61 953.856H1683.73V973.417H1664.61V953.856ZM1664.61 912.638H1683.73V932.198H1664.61V912.638ZM1664.61 871.419H1683.73V890.98H1664.61V871.419ZM1664.61 830.201H1683.73V849.762H1664.61V830.201ZM1664.61 788.983H1683.73V808.543H1664.61V788.983ZM1624.33 953.856H1643.46V973.417H1624.33V953.856ZM1624.33 912.638H1643.46V932.198H1624.33V912.638ZM1624.33 871.419H1643.46V890.98H1624.33V871.419ZM1624.33 830.201H1643.46V849.762H1624.33V830.201ZM1624.33 788.983H1643.46V808.543H1624.33V788.983ZM1576.11 952.289H1586.99V965.998H1576.11V952.289ZM1576.11 914.527H1586.99V928.236H1576.11V914.527ZM1576.11 876.787H1586.99V890.496H1576.11V876.787ZM1576.11 839.025H1586.99V852.734H1576.11V839.025ZM1554.66 952.289H1565.54V965.998H1554.66V952.289ZM1554.66 914.527H1565.54V928.236H1554.66V914.527ZM1554.66 876.787H1565.54V890.496H1554.66V876.787ZM1554.66 839.025H1565.54V852.734H1554.66V839.025ZM1533.21 952.289H1544.09V965.998H1533.21V952.289ZM1533.21 914.527H1544.09V928.236H1533.21V914.527ZM1533.21 876.787H1544.09V890.496H1533.21V876.787ZM1533.21 839.025H1544.09V852.734H1533.21V839.025ZM1467.43 859.3H1478.31V869.806H1467.43V859.3ZM1467.43 830.408H1478.31V840.891H1467.43V830.408ZM1467.43 801.493H1478.31V811.976H1467.43V801.493ZM1467.43 772.601H1478.31V783.084H1467.43V772.601ZM1445.98 859.3H1456.86V869.806H1445.98V859.3ZM1445.98 830.408H1456.86V840.891H1445.98V830.408ZM1445.98 801.493H1456.86V811.976H1445.98V801.493ZM1445.98 772.601H1456.86V783.084H1445.98V772.601ZM1424.53 859.3H1435.41V869.806H1424.53V859.3ZM1424.53 830.408H1435.41V840.891H1424.53V830.408ZM1424.53 801.493H1435.41V811.976H1424.53V801.493ZM1424.53 772.601H1435.41V783.084H1424.53V772.601ZM1362.09 937.889H1377.69V950.976H1362.09V937.889ZM1362.09 912.338H1377.69V925.425H1362.09V912.338ZM1362.09 886.764H1377.69V899.85H1362.09V886.764ZM1307.95 949.801H1317.37V961.528H1307.95V949.801ZM1307.95 927.383H1317.37V939.11H1307.95V927.383ZM1307.95 904.965H1317.37V916.693H1307.95V904.965ZM1307.95 882.571H1317.37V894.298H1307.95V882.571ZM1291.22 949.801H1300.65V961.528H1291.22V949.801ZM1291.22 927.383H1300.65V939.11H1291.22V927.383ZM1291.22 904.965H1300.65V916.693H1291.22V904.965ZM1291.22 882.571H1300.65V894.298H1291.22V882.571ZM1260.17 829.901H1267.05V844.232H1260.17V829.901ZM1260.17 802.783H1267.05V817.114H1260.17V802.783ZM1260.17 775.666H1267.05V789.996H1260.17V775.666ZM1246.36 949.801H1255.79V961.528H1246.36V949.801ZM1246.36 927.383H1255.79V939.11H1246.36V927.383ZM1246.36 904.965H1255.79V916.693H1246.36V904.965ZM1246.36 882.571H1255.79V894.298H1246.36V882.571ZM1229.61 949.801H1239.04V961.528H1229.61V949.801ZM1229.61 927.383H1239.04V939.11H1229.61V927.383ZM1229.61 904.965H1239.04V916.693H1229.61V904.965ZM1229.61 882.571H1239.04V894.298H1229.61V882.571ZM1167.68 953.188H1183.28V966.274H1167.68V953.188ZM1167.68 927.613H1183.28V940.7H1167.68V927.613ZM1167.68 902.062H1183.28V915.149H1167.68V902.062ZM1167.68 876.488H1183.28V889.575H1167.68V876.488ZM1167.68 850.937H1183.28V864.023H1167.68V850.937ZM1167.68 825.363H1183.28V838.449H1167.68V825.363ZM1167.68 799.811H1183.28V812.898H1167.68V799.811ZM1094.99 924.964H1101.12V940.285H1094.99V924.964ZM1094.99 895.703H1101.12V911.025H1094.99V895.703ZM1094.99 866.443H1101.12V881.764H1094.99V866.443ZM1094.99 837.182H1101.12V852.503H1094.99V837.182ZM1094.99 807.921H1101.12V823.243H1094.99V807.921ZM1094.99 778.661H1101.12V793.982H1094.99V778.661ZM1094.99 749.4H1101.12V764.722H1094.99V749.4ZM1094.99 720.14H1101.12V735.461H1094.99V720.14ZM1084.09 924.964H1090.22V940.285H1084.09V924.964ZM1084.09 895.703H1090.22V911.025H1084.09V895.703ZM1084.09 866.443H1090.22V881.764H1084.09V866.443ZM1084.09 837.182H1090.22V852.503H1084.09V837.182ZM1084.09 807.921H1090.22V823.243H1084.09V807.921ZM1084.09 778.661H1090.22V793.982H1084.09V778.661ZM1084.09 749.4H1090.22V764.722H1084.09V749.4ZM1084.09 720.14H1090.22V735.461H1084.09V720.14ZM1066.7 924.964H1072.83V940.285H1066.7V924.964ZM1066.7 895.703H1072.83V911.025H1066.7V895.703ZM1066.7 866.443H1072.83V881.764H1066.7V866.443ZM1066.7 837.182H1072.83V852.503H1066.7V837.182ZM1066.7 807.921H1072.83V823.243H1066.7V807.921ZM1066.7 778.661H1072.83V793.982H1066.7V778.661ZM1066.7 749.4H1072.83V764.722H1066.7V749.4ZM1066.7 720.14H1072.83V735.461H1066.7V720.14ZM1055.8 924.964H1061.93V940.285H1055.8V924.964ZM1055.8 895.703H1061.93V911.025H1055.8V895.703ZM1055.8 866.443H1061.93V881.764H1055.8V866.443ZM1055.8 837.182H1061.93V852.503H1055.8V837.182ZM1055.8 807.921H1061.93V823.243H1055.8V807.921ZM1055.8 778.661H1061.93V793.982H1055.8V778.661ZM1055.8 749.4H1061.93V764.722H1055.8V749.4ZM1055.8 720.14H1061.93V735.461H1055.8V720.14ZM944.542 918.881H951.431V937.613H944.542V918.881ZM944.542 883.469H951.431V902.2H944.542V883.469ZM895.329 891.464H902.909V911.071H895.329V891.464ZM895.329 860.199H902.909V879.806H895.329V860.199ZM880.376 891.464H887.956V911.071H880.376V891.464ZM880.376 860.199H887.956V879.806H880.376V860.199ZM865.446 891.464H873.026V911.071H865.446V891.464ZM865.446 860.199H873.026V879.806H865.446V860.199ZM773.817 927.66H782.572V944.11H773.817V927.66ZM773.817 892.985H782.572V909.435H773.817V892.985ZM773.817 858.333H782.572V874.783H773.817V858.333ZM773.817 823.658H782.572V840.108H773.817V823.658ZM773.817 788.983H782.572V805.433H773.817V788.983ZM755.362 927.66H764.117V944.11H755.362V927.66ZM755.362 892.985H764.117V909.435H755.362V892.985ZM755.362 858.333H764.117V874.783H755.362V858.333ZM755.362 823.658H764.117V840.108H755.362V823.658ZM755.362 788.983H764.117V805.433H755.362V788.983ZM736.884 927.66H745.639V944.11H736.884V927.66ZM736.884 892.985H745.639V909.435H736.884V892.985ZM736.884 858.333H745.639V874.783H736.884V858.333ZM736.884 823.658H745.639V840.108H736.884V823.658ZM736.884 788.983H745.639V805.433H736.884V788.983ZM683.409 859.323H694.283V873.032H683.409V859.323ZM683.409 821.584H694.283V835.293H683.409V821.584ZM683.409 783.845H694.283V797.553H683.409V783.845ZM683.409 746.082H694.283V759.791H683.409V746.082ZM661.958 859.323H672.833V873.032H661.958V859.323ZM661.958 821.584H672.833V835.293H661.958V821.584ZM661.958 783.845H672.833V797.553H661.958V783.845ZM661.958 746.082H672.833V759.791H661.958V746.082ZM640.508 859.323H651.383V873.032H640.508V859.323ZM640.508 821.584H651.383V835.293H640.508V821.584ZM640.508 783.845H651.383V797.553H640.508V783.845ZM640.508 746.082H651.383V759.791H640.508V746.082ZM523.926 937.659H533.35V952.98H523.926V937.659ZM523.926 908.398H533.35V923.72H523.926V908.398ZM523.926 879.138H533.35V894.459H523.926V879.138ZM523.926 849.877H533.35V865.198H523.926V849.877ZM507.177 937.659H516.6V952.98H507.177V937.659ZM507.177 908.398H516.6V923.72H507.177V908.398ZM507.177 879.138H516.6V894.459H507.177V879.138ZM507.177 849.877H516.6V865.198H507.177V849.877ZM476.142 781.08H483.031V799.811H476.142V781.08ZM476.142 745.668H483.031V764.399H476.142V745.668ZM476.142 710.278H483.031V729.01H476.142V710.278ZM462.341 937.659H471.764V952.98H462.341V937.659ZM462.341 908.398H471.764V923.72H462.341V908.398ZM462.341 879.138H471.764V894.459H462.341V879.138ZM462.341 849.877H471.764V865.198H462.341V849.877ZM445.591 937.659H455.014V952.98H445.591V937.659ZM445.591 908.398H455.014V923.72H445.591V908.398ZM445.591 879.138H455.014V894.459H445.591V879.138ZM445.591 849.877H455.014V865.198H445.591V849.877ZM333.387 954.939H344.469V966.274H333.387V954.939ZM333.387 932.774H344.469V944.11H333.387V932.774ZM333.387 910.61H344.469V921.946H333.387V910.61ZM333.387 888.446H344.469V899.781H333.387V888.446ZM333.387 866.281H344.469V877.617H333.387V866.281ZM333.387 844.14H344.469V855.476H333.387V844.14ZM333.387 821.976H344.469V833.311H333.387V821.976ZM333.387 799.811H344.469V811.147H333.387V799.811ZM250.144 935.309H256.273V950.63H250.144V935.309ZM250.144 906.048H256.273V921.37H250.144V906.048ZM250.144 876.787H256.273V892.109H250.144V876.787ZM250.144 847.527H256.273V862.848H250.144V847.527ZM250.144 818.243H256.273V833.565H250.144V818.243ZM250.144 788.983H256.273V804.304H250.144V788.983ZM250.144 759.722H256.273V775.043H250.144V759.722ZM250.144 730.461H256.273V745.783H250.144V730.461ZM239.246 935.309H245.375V950.63H239.246V935.309ZM239.246 906.048H245.375V921.37H239.246V906.048ZM239.246 876.787H245.375V892.109H239.246V876.787ZM239.246 847.527H245.375V862.848H239.246V847.527ZM239.246 818.243H245.375V833.565H239.246V818.243ZM239.246 788.983H245.375V804.304H239.246V788.983ZM239.246 759.722H245.375V775.043H239.246V759.722ZM239.246 730.461H245.375V745.783H239.246V730.461ZM210.055 935.309H216.183V950.63H210.055V935.309ZM210.055 906.048H216.183V921.37H210.055V906.048ZM210.055 876.787H216.183V892.109H210.055V876.787ZM210.055 847.527H216.183V862.848H210.055V847.527ZM210.055 818.243H216.183V833.565H210.055V818.243ZM210.055 788.983H216.183V804.304H210.055V788.983ZM210.055 759.722H216.183V775.043H210.055V759.722ZM210.055 730.461H216.183V745.783H210.055V730.461ZM199.157 935.309H205.285V950.63H199.157V935.309ZM199.157 906.048H205.285V921.37H199.157V906.048ZM199.157 876.787H205.285V892.109H199.157V876.787ZM199.157 847.527H205.285V862.848H199.157V847.527ZM199.157 818.243H205.285V833.565H199.157V818.243ZM199.157 788.983H205.285V804.304H199.157V788.983ZM199.157 759.722H205.285V775.043H199.157V759.722ZM199.157 730.461H205.285V745.783H199.157V730.461ZM169.965 935.309H176.094V950.63H169.965V935.309ZM169.965 906.048H176.094V921.37H169.965V906.048ZM169.965 876.787H176.094V892.109H169.965V876.787ZM169.965 847.527H176.094V862.848H169.965V847.527ZM169.965 818.243H176.094V833.565H169.965V818.243ZM169.965 788.983H176.094V804.304H169.965V788.983ZM169.965 759.722H176.094V775.043H169.965V759.722ZM169.965 730.461H176.094V745.783H169.965V730.461ZM159.067 935.309H165.196V950.63H159.067V935.309ZM159.067 906.048H165.196V921.37H159.067V906.048ZM159.067 876.787H165.196V892.109H159.067V876.787ZM159.067 847.527H165.196V862.848H159.067V847.527ZM159.067 818.243H165.196V833.565H159.067V818.243ZM159.067 788.983H165.196V804.304H159.067V788.983ZM159.067 759.722H165.196V775.043H159.067V759.722ZM159.067 730.461H165.196V745.783H159.067V730.461ZM121.697 911.071H129.277V942.958H121.697V911.071ZM121.697 860.199H129.277V892.086H121.697V860.199ZM106.767 911.071H114.347V942.958H106.767V911.071ZM106.767 860.199H114.347V892.086H106.767V860.199ZM91.837 911.071H99.4172V942.958H91.837V911.071ZM91.837 860.199H99.4172V892.086H91.837V860.199ZM43.8451 953.856H62.9682V973.417H43.8451V953.856ZM43.8451 912.638H62.9682V932.198H43.8451V912.638ZM43.8451 871.419H62.9682V890.98H43.8451V871.419ZM43.8451 830.201H62.9682V849.762H43.8451V830.201ZM43.8451 788.983H62.9682V808.543H43.8451V788.983ZM3.54842 953.856H22.6715V973.417H3.54842V953.856ZM3.54842 912.638H22.6715V932.198H3.54842V912.638ZM3.54842 871.419H22.6715V890.98H3.54842V871.419ZM3.54842 830.201H22.6715V849.762H3.54842V830.201ZM3.54842 788.983H22.6715V808.543H3.54842V788.983ZM-36.7253 953.856H-17.6023V973.417H-36.7253V953.856ZM-36.7253 912.638H-17.6023V932.198H-36.7253V912.638ZM-36.7253 871.419H-17.6023V890.98H-36.7253V871.419ZM-36.7253 830.201H-17.6023V849.762H-36.7253V830.201ZM-36.7253 788.983H-17.6023V808.543H-36.7253V788.983Z" fill="#49A942"/>
<path d="M-0.0078125 580.006C1.62802 580.973 3.2179 581.987 4.73853 583.093C30.1745 567.195 65.5637 566.919 92.2669 581.135C96.2759 570.928 108.257 563.555 120.606 563.693C132.932 563.855 144.683 571.527 148.346 581.849C156.548 580.42 164.796 580.489 172.33 583.669C177.745 585.95 212.443 575.766 219.17 574.269C230.921 571.665 233.985 578.854 243.454 580.075C253.638 581.388 265.181 575.513 275.203 579.614C277.023 580.351 278.613 581.526 280.48 582.148C284.834 583.623 289.649 582.056 294.257 581.342C298.842 580.605 302.943 580.443 304.579 584.291C184.104 587.724 92.6815 593.576 -0.0078125 608.391V580.006Z" fill="#D3D3D3"/>
<path d="M1727.98 547.22V610.579C1567.14 587.747 1404.16 576.434 1241.22 576.872C1244.12 572.54 1250.04 568.831 1255.71 569.522C1261.4 570.236 1266.52 572.84 1271.45 575.397C1278.96 561.32 1299.74 553.947 1316.31 559.5C1321.65 561.297 1326.51 564.223 1332.07 565.421C1337.73 566.665 1343.93 565.974 1349.07 563.509C1358.51 558.993 1363.42 554.385 1373.88 556.643C1384.14 558.855 1392.77 566.274 1403.35 566.251C1414.46 566.228 1422.98 558.187 1431.48 551.966C1451.18 537.543 1480.99 531 1502.74 542.934C1514.54 549.408 1525.88 561.205 1539.19 557.703C1544.1 551.666 1550.07 546.851 1554.98 540.838C1560.18 534.433 1565.57 527.866 1573.15 523.65C1592.28 512.959 1594.7 529.871 1609.19 530.239C1623.63 530.608 1630.87 515.885 1647.57 518.696C1661.28 521 1671.58 532.244 1673.98 544.317C1676.07 554.938 1672.89 565.905 1667.11 575.49C1672.16 570.375 1682.46 568.555 1688.74 572.494C1686.3 568.255 1693.47 563.831 1698.49 565.559C1703.51 567.31 1706.07 572.126 1708.12 576.503C1707.2 564.546 1715.91 553.026 1727.98 547.22Z" fill="#D3D3D3"/>
<path d="M-0.0078125 102.624C4.87664 104.467 7.77968 109.283 9.23119 113.891C9.41551 114.467 9.62297 115.089 10.199 115.388C10.6598 115.642 11.2588 115.595 11.7887 115.526C14.4844 115.204 17.2952 114.513 19.8296 115.388C22.1106 116.171 23.6081 118.13 24.4836 120.134C25.3591 122.139 25.7278 124.281 26.5341 126.309C27.9626 129.926 30.8427 133.106 34.529 135.156C35.4506 135.663 36.4874 136.124 37.5473 135.986C38.7684 135.824 39.6439 134.926 40.7037 134.373C43.6528 132.783 47.4313 133.866 50.6799 134.926C51.2098 135.11 51.7628 135.271 52.3388 135.202C54.4124 134.926 54.0668 132.092 55.357 130.64C56.6242 129.212 59.0664 129.442 61.117 129.558C65.9554 129.788 68.2824 124.996 70.7938 122.093C73.0747 119.489 76.139 117.001 79.8715 116.817C81.899 116.724 84.0877 117.277 85.8618 116.425C87.7741 115.48 88.281 113.315 89.0874 111.517C91.6448 105.919 99.1557 102.716 105.999 103.569C112.841 104.421 118.694 108.753 121.827 114.121C122.956 116.079 123.809 118.176 125.26 119.973C126.712 121.747 129.015 123.222 131.504 123.083C134.292 122.922 136.411 120.918 138.969 119.904C142.517 118.498 146.779 119.19 150.097 120.964C153.415 122.738 155.88 125.48 158.023 128.337C159.589 130.456 161.041 132.691 163.184 134.396C165.326 136.101 168.367 137.161 171.109 136.423C173.16 135.871 174.704 134.419 176.501 133.382C180.348 131.124 185.555 130.779 189.725 132.53C192.536 133.682 194.771 135.663 197.329 137.184C203.296 140.709 208.019 136.746 214.171 139.004C216.751 139.949 218.963 141.631 221.636 142.391C226.29 143.727 229.746 141.239 234.1 140.479C238.823 139.649 243.616 139.211 248.431 139.142C253.246 139.073 258.062 139.35 262.831 139.949C267.001 140.479 272.346 142.713 276.448 142.598C183.966 145.271 91.6217 152.298 -0.0078125 163.564V102.624Z" fill="#D3D3D3"/>
<path d="M179.289 49.1716C261.011 44.4254 342.964 42.7434 424.871 44.1258C422.106 35.0942 409.503 35.9467 399.389 32.9745C392.108 30.8318 387.178 24.9797 380.634 21.5007C374.068 18.0217 363.124 18.5746 361.373 25.118C360.958 8.87486 332.919 -2.78331 314.786 0.580513C296.654 3.94433 283.107 17.7913 275.918 32.7672C268.799 28.1131 257.97 28.4587 251.243 33.5736C243.04 29.8411 231.751 32.675 225.714 38.8267C220.254 32.4677 207.628 32.4446 202.145 38.8036C200.509 40.6929 199.38 43.066 197.03 44.2871C191.777 46.9828 183.045 44.9322 179.289 49.1716Z" fill="#D3D3D3"/>
<path d="M1425.47 47.5122C1427.2 40.3468 1434.59 40.3237 1442.89 39.6556C1451.2 38.9874 1459.41 41.1992 1467.56 42.8351C1470.35 43.388 1473.51 43.8488 1475.95 42.5125C1478.94 40.8997 1479.64 37.3516 1482.08 35.1167C1488.39 29.3337 1499.59 36.0153 1508.48 34.1491C1517.74 32.2137 1521.27 21.8688 1529.63 17.8599C1540.9 12.4685 1554.1 20.5786 1563.64 28.1126C1573.18 35.6466 1586.77 43.4802 1597.71 37.6281C1601.49 35.6236 1604.42 32.0985 1608.77 31.4534C1618.38 30.048 1622.48 42.5816 1631.4 46.0146C1637.02 48.1803 1643.47 46.2911 1649.6 46.4523C1655.73 46.5906 1658.7 49.2171 1656.42 54.1937C1569.97 48.3646 1483.11 47.1205 1396.48 50.4613C1404.71 44.5631 1419.11 40.0242 1425.47 47.5122Z" fill="#D3D3D3"/>
<path d="M1541.2 147.137C1545.44 140.202 1557.02 140.709 1565.43 143.474C1573.66 146.169 1579.67 140.479 1587.85 139.027C1597.18 137.368 1607.09 138.106 1615.89 141.308C1620.98 143.174 1625.87 145.824 1631.35 146.354C1636.4 141.216 1642.04 136.216 1648.52 132.507C1653.45 129.673 1659.81 127.277 1665.04 129.673C1668.7 131.355 1672.59 135.203 1675.93 133.083C1677.25 132.253 1677.71 130.779 1678.19 129.443C1682.71 116.909 1695.08 106.794 1709.64 103.661C1715.63 102.371 1721.9 102.325 1727.96 103.315V152.367C1661.81 149.395 1594.17 148.934 1520.67 148.934C1525.53 142.783 1536.2 141.078 1541.2 147.137Z" fill="#D3D3D3"/>
</svg>
