<svg width="25" height="25" viewBox="0 0 25 25" xmlns="http://www.w3.org/2000/svg">
<path d="M24.8567 4.60851C24.7295 4.48123 24.5173 4.43879 24.3475 4.48123L23.4988 4.77829C24.0081 4.18423 24.3475 3.54773 24.5597 2.95367C24.6446 2.7415 24.6021 2.57178 24.4748 2.44445C24.3475 2.31716 24.1353 2.27472 23.9656 2.35956C22.7775 2.86878 21.7591 3.29311 20.9104 3.54768C20.9104 3.59012 20.8679 3.54768 20.8255 3.54768C20.1466 3.16579 18.4917 2.31712 17.3035 2.31712C14.2908 2.35956 11.8721 4.90557 11.8721 8.00319V8.17291C7.45901 7.32425 5.04033 6.05124 2.40944 3.29307L1.9852 2.86873L1.73059 3.37795C0.287864 6.13613 1.30626 8.63969 2.96115 10.337C2.19737 10.2098 1.68815 9.95514 1.22137 9.57325C1.05165 9.44597 0.839479 9.40352 0.627312 9.53081C0.457588 9.61569 0.372702 9.87025 0.415145 10.0824C1.0092 12.0768 2.49437 13.6893 4.10683 14.6652C3.34304 14.6652 2.70654 14.5803 2.07004 14.156C1.90032 14.0711 1.64571 14.0711 1.47598 14.1984C1.30626 14.3258 1.22137 14.5379 1.30626 14.7501C2.07004 16.9142 3.55521 18.0598 5.93149 18.3569C4.70093 19.0783 3.08848 19.6723 0.584918 19.7148C0.330307 19.7148 0.11814 19.8845 0.0333023 20.0967C-0.0515842 20.3513 0.0333023 20.5635 0.203026 20.7332C1.73064 21.9637 5.12527 22.6851 9.32617 22.6851C16.7944 22.6851 22.9048 16.0231 22.9048 7.83347V7.70619C23.8384 7.23941 24.6022 6.3483 24.9841 5.11773C25.0265 4.94796 24.984 4.73579 24.8567 4.60851ZM22.3107 7.02719L22.0561 7.11208V7.83347C22.0561 15.5563 16.3276 21.8365 9.32612 21.8365C5.46467 21.8365 2.87627 21.2 1.47598 20.521C4.40388 20.3088 6.10122 19.3753 7.41667 18.3569L8.4775 17.5931H7.2045C4.78582 17.5931 3.30065 16.9142 2.45198 15.3017C3.21576 15.5563 4.02199 15.5563 4.9131 15.5139C5.25255 15.4714 5.59205 15.4714 5.93149 15.4714L6.05878 14.6228C4.44632 14.156 2.53682 12.7133 1.60326 10.7614C2.45193 11.1433 3.38544 11.2281 4.23411 11.2281H5.54955L4.48877 10.4643C3.59765 9.82781 0.966809 7.57886 2.23981 4.3539C4.95554 7.02719 7.544 8.25775 12.2116 9.10642L12.7208 9.19131V8.00319C12.7208 5.37235 14.7576 3.20823 17.3036 3.16579C18.2796 3.12334 19.8921 4.01445 20.3588 4.26907C20.6134 4.39635 20.868 4.43879 21.1226 4.35395C21.7591 4.14178 22.5229 3.84473 23.3716 3.50528C22.9897 4.14178 22.4804 4.73584 21.8015 5.28751C21.6318 5.41479 21.5894 5.6694 21.6743 5.88157C21.7592 6.09373 22.0137 6.17862 22.2259 6.09373L23.8808 5.54212C23.5837 6.09368 23.1169 6.73019 22.3107 7.02719Z"/>
</svg>
