<svg width="688" height="688" viewBox="0 0 688 688" fill="none" xmlns="http://www.w3.org/2000/svg">
<path fill-rule="evenodd" clip-rule="evenodd" d="M352.462 344.359C352.462 344.202 352.462 344.059 352.462 343.902L688 338.466C686.359 306.047 687.757 322.242 683.776 289.908L352.348 342.718C352.319 342.575 352.291 342.418 352.262 342.261C352.219 342.104 352.191 341.962 352.148 341.819L675.828 253.066C666.053 221.817 671.49 237.227 659.546 206.848L351.763 340.692C351.691 340.549 351.634 340.406 351.577 340.278C351.506 340.15 351.435 340.007 351.349 339.879L642.679 173.231C625.541 145.591 634.588 159.09 615.538 132.764L350.721 338.908C350.621 338.794 350.521 338.666 350.421 338.551C350.321 338.437 350.222 338.323 350.122 338.223L590.966 104.482C567.564 81.9944 579.65 92.8103 554.707 72.0204L349.223 337.424C349.094 337.339 348.98 337.253 348.866 337.153C348.737 337.068 348.609 336.982 348.481 336.896L523.827 50.6596C495.387 34.5784 509.871 42.0982 480.418 28.1003L347.439 336.354C347.282 336.297 347.154 336.24 347.011 336.183C346.868 336.126 346.725 336.069 346.583 336.026L444.958 15.0584C413.422 6.61114 429.304 10.2497 397.297 4.08552L345.413 335.798C345.27 335.769 345.127 335.741 344.956 335.726C344.813 335.712 344.656 335.712 344.514 335.698L359.996 0.304231C327.447 -0.066764 343.715 -0.452028 311.351 1.46002L343.301 335.726C343.158 335.741 343.001 335.755 342.844 335.783C342.687 335.812 342.559 335.84 342.402 335.869L274.021 7.06775C242.285 14.8301 258.011 10.3782 226.874 20.4093L341.274 336.169C341.132 336.226 340.989 336.268 340.846 336.34C340.704 336.383 340.561 336.468 340.418 336.525L192.184 35.1635C163.517 50.5597 177.558 42.3551 150.06 59.7347L339.391 337.125C339.262 337.224 339.148 337.31 339.02 337.396C338.906 337.496 338.777 337.595 338.663 337.681L120.279 82.5224C96.3776 104.468 107.936 93.0815 85.6468 116.668L337.821 338.537C337.721 338.651 337.621 338.766 337.522 338.894C337.436 339.008 337.336 339.137 337.25 339.265L62.3872 146.134C44.6071 173.416 53.012 159.461 37.1726 188.013L336.651 340.264C336.58 340.378 336.508 340.535 336.451 340.663C336.394 340.806 336.323 340.949 336.28 341.091L21.9611 222.487C11.5299 253.451 16.1819 237.812 7.97676 269.447L335.938 342.219C335.909 342.376 335.88 342.518 335.852 342.675C335.823 342.832 335.809 342.975 335.795 343.132L1.88359 306.46C-0.513721 338.923 0.114158 322.656 0 355.218L335.752 344.33C335.752 344.487 335.766 344.63 335.781 344.787C335.795 344.944 335.809 345.101 335.838 345.244L3.23921 392.56C8.9899 424.736 5.55091 408.798 13.5705 440.447L336.095 346.399C336.137 346.542 336.194 346.685 336.237 346.842C336.28 346.97 336.351 347.113 336.409 347.256L26.0707 476.019C39.6841 505.713 32.3637 491.13 48.0033 519.697L336.908 348.312C336.994 348.44 337.079 348.583 337.151 348.697C337.25 348.811 337.336 348.954 337.422 349.068L68.9227 550.889C89.3284 576.102 78.6974 563.874 100.83 587.589L338.192 349.981C338.292 350.081 338.42 350.181 338.52 350.281C338.635 350.381 338.749 350.48 338.863 350.58L128.756 612.588C154.826 632.023 141.484 622.791 168.868 640.327L339.847 351.251C339.976 351.322 340.119 351.394 340.247 351.479C340.375 351.551 340.518 351.608 340.661 351.679L202.316 657.707C232.611 670.107 217.271 664.442 248.293 674.63L341.774 352.093C341.931 352.15 342.059 352.178 342.202 352.207C342.359 352.236 342.516 352.264 342.659 352.293L285.08 683.106C317.173 687.501 301.034 685.86 333.483 688L343.843 352.421C343.986 352.421 344.143 352.421 344.285 352.421C344.457 352.421 344.599 352.407 344.742 352.392L370.941 687.101C403.348 683.405 387.223 685.831 419.316 679.824L345.912 352.221C346.069 352.178 346.212 352.15 346.354 352.107C346.497 352.064 346.64 352.021 346.783 351.979L455.66 669.536C486.112 657.864 471.086 664.242 500.681 650.401L347.91 351.493C348.038 351.422 348.181 351.351 348.309 351.279C348.438 351.194 348.566 351.123 348.695 351.051L533.159 631.466C559.63 612.66 546.758 622.519 571.816 601.901L349.637 350.309C349.751 350.224 349.865 350.109 349.965 350.01C350.079 349.895 350.193 349.796 350.307 349.681L598.486 575.617C619.491 550.832 609.445 563.588 628.652 537.348L351.021 348.74C351.106 348.611 351.192 348.483 351.278 348.369C351.349 348.24 351.42 348.098 351.506 347.969L648.073 505.085C662.329 475.705 655.722 490.645 667.865 460.252L351.977 346.885C352.02 346.742 352.077 346.599 352.119 346.442C352.148 346.3 352.191 346.157 352.234 346.014L678.61 424.166C685.06 392.217 682.421 408.256 686.559 376.079L352.433 344.858C352.448 344.687 352.462 344.53 352.462 344.359Z" fill="url(#paint0_radial_304_6705)"/>
<defs>
<radialGradient id="paint0_radial_304_6705" cx="0" cy="0" r="1" gradientUnits="userSpaceOnUse" gradientTransform="translate(344.003 343.996) scale(314.354 314.339)">
<stop stop-color="#49A942"/>
<stop offset="0.2408" stop-color="#49A942"/>
<stop offset="0.7156" stop-color="#49A942" stop-opacity="0.28"/>
<stop offset="1" stop-color="#49A942" stop-opacity="0"/>
</radialGradient>
</defs>
</svg>
