<svg width="25" height="25" viewBox="0 0 25 25" xmlns="http://www.w3.org/2000/svg">
<path d="M24.7496 7.1992C24.7496 7.11571 24.4992 5.27935 23.7062 4.40289C22.7462 3.35951 21.7029 3.2343 21.1603 3.19253H20.9934C17.6127 2.94211 12.5627 2.90039 12.4792 2.90039C12.4375 2.90039 7.34564 2.94211 4.00672 3.27602H3.88152C3.29714 3.31774 2.25375 3.44295 1.33557 4.48633C0.500834 5.36279 0.250417 7.24092 0.250417 7.32441C0.250417 7.32441 0 9.45296 0 11.5815V13.5431C0 15.6299 0.250417 17.7585 0.250417 17.8002C0.250417 17.8837 0.500834 19.7201 1.29381 20.5965C2.17027 21.5982 3.21365 21.7234 3.88147 21.8069C4.00668 21.8069 4.09016 21.8069 4.21537 21.8486C6.13522 22.0155 12.2287 22.099 12.4791 22.099C12.5209 22.099 17.6127 22.099 20.9933 21.7234H21.1185C21.7029 21.6817 22.7462 21.5565 23.6644 20.513C24.4992 19.6366 24.7496 17.7584 24.7496 17.675C24.7496 17.675 25 15.5464 25 13.4179V11.4563C25 9.36947 24.7496 7.24092 24.7496 7.1992ZM24.1653 13.5014C24.1653 15.5882 23.9148 17.675 23.9148 17.675C23.8314 18.1341 23.5809 19.4696 23.0384 20.0539C22.3288 20.8887 21.4942 20.9721 21.035 21.0139H20.9098C17.5709 21.2643 12.5209 21.2643 12.4791 21.2643C12.4374 21.2643 6.17699 21.1808 4.34058 20.9721C4.21537 20.9721 4.09016 20.9304 3.96496 20.9304C3.38063 20.8887 2.54594 20.7635 1.87813 20.0122C1.37729 19.4697 1.08516 18.1341 1.04339 17.675C1.04339 17.6333 0.792972 15.5465 0.792972 13.5014V11.5398C0.792972 9.45296 1.04339 7.36618 1.04339 7.36618C1.08511 6.90707 1.37729 5.57154 1.87813 4.98722C2.62938 4.15248 3.42235 4.06899 3.92319 4.02727H4.0484C7.38731 3.77685 12.4374 3.73513 12.4791 3.73513C12.5208 3.73513 17.5709 3.77685 20.9098 4.02727H21.0767C21.5358 4.06899 22.3705 4.15248 23.0801 4.98722C23.5809 5.57154 23.8313 6.90707 23.9148 7.36618C23.9565 7.44967 24.1652 9.53645 24.1652 11.5398L24.1653 13.5014Z"/>
<path d="M17.6965 12.541L9.76667 7.90832C9.64146 7.82483 9.47453 7.82483 9.34932 7.90832C9.22411 7.99181 9.14062 8.11702 9.14062 8.28395V17.3407C9.14062 17.5076 9.22411 17.6328 9.34932 17.7163C9.43281 17.758 9.47453 17.758 9.55802 17.758C9.64151 17.758 9.68323 17.758 9.76672 17.7163L17.6966 13.2923C17.8218 13.2088 17.9053 13.0836 17.9053 12.9167C17.9053 12.7497 17.8217 12.6245 17.6965 12.541ZM9.97537 16.6312V8.99343L16.6531 12.9166L9.97537 16.6312Z"/>
</svg>
