<svg xmlns="http://www.w3.org/2000/svg" width="20" height="20" viewBox="0 0 20 20">
  <path d="M0.930176 9.01746C0.515962 9.01746 0.180176 9.35324 0.180176 9.76746C0.180176 10.1817 0.515962 10.5175 0.930176 10.5175L0.930176 9.01746ZM19.6 10.2978C19.8929 10.0049 19.8929 9.53002 19.6 9.23713L14.8271 4.46416C14.5342 4.17126 14.0593 4.17126 13.7664 4.46416C13.4735 4.75705 13.4735 5.23192 13.7664 5.52482L18.0091 9.76746L13.7664 14.0101C13.4735 14.303 13.4735 14.7779 13.7664 15.0708C14.0593 15.3637 14.5342 15.3637 14.8271 15.0708L19.6 10.2978ZM0.930176 10.5175L19.0697 10.5175L19.0697 9.01746L0.930176 9.01746L0.930176 10.5175Z"/>
</svg>