<svg width="25" height="25" viewBox="0 0 25 25" xmlns="http://www.w3.org/2000/svg">
<path d="M6.73398 22.9173H18.2673C20.8298 22.9173 22.9173 20.8298 22.9173 18.2673V6.73398C22.9173 4.17148 20.8298 2.08398 18.2673 2.08398H6.73398C4.17148 2.08398 2.08398 4.17148 2.08398 6.73398V18.2673C2.08398 20.8298 4.17148 22.9173 6.73398 22.9173ZM2.91732 6.73398C2.91732 4.62982 4.62982 2.91732 6.73398 2.91732H18.2673C20.3715 2.91732 22.084 4.62982 22.084 6.73398V18.2673C22.084 20.3715 20.3715 22.084 18.2673 22.084H6.73398C4.62982 22.084 2.91732 20.3715 2.91732 18.2673V6.73398Z" />
<path d="M12.5 19.25C16.2208 19.25 19.25 16.2208 19.25 12.5C19.25 8.77917 16.2208 5.75 12.5 5.75C8.77917 5.75 5.75 8.77917 5.75 12.5C5.75 16.2208 8.77917 19.25 12.5 19.25ZM12.5 6.58333C15.7625 6.58333 18.4167 9.2375 18.4167 12.5C18.4167 15.7625 15.7625 18.4167 12.5 18.4167C9.2375 18.4167 6.58333 15.7625 6.58333 12.5C6.58333 9.2375 9.2375 6.58333 12.5 6.58333Z" />
<path d="M12.4988 16.3248C14.6072 16.3248 16.3238 14.6081 16.3238 12.4998C16.3238 10.3915 14.6072 8.6748 12.4988 8.6748C10.3905 8.6748 8.67383 10.3915 8.67383 12.4998C8.67383 14.6081 10.3905 16.3248 12.4988 16.3248ZM12.4988 9.50814C14.1488 9.50814 15.4905 10.8498 15.4905 12.4998C15.4905 14.1498 14.1488 15.4915 12.4988 15.4915C10.8488 15.4915 9.50716 14.1498 9.50716 12.4998C9.50716 10.8498 10.8488 9.50814 12.4988 9.50814Z" />
<path d="M19.3918 6.97943C20.1793 6.97943 20.821 6.33776 20.821 5.55026C20.821 4.76276 20.1793 4.12109 19.3918 4.12109C18.6043 4.12109 17.9668 4.76276 17.9668 5.55026C17.9627 6.33776 18.6043 6.97943 19.3918 6.97943ZM19.3918 4.95859C19.721 4.95859 19.9877 5.22526 19.9877 5.55443C19.9877 5.88359 19.721 6.15026 19.3918 6.15026C19.0627 6.15026 18.8002 5.88359 18.8002 5.55443C18.8002 5.22526 19.0627 4.95859 19.3918 4.95859Z" />
</svg>
