<svg width="18" height="18" viewBox="0 0 18 18"  xmlns="http://www.w3.org/2000/svg">
<path d="M3.66729 11.9652C5.44267 14.0874 7.57985 15.7584 10.0191 16.9407C10.9479 17.3809 12.1899 17.903 13.5736 17.9925C13.6594 17.9963 13.7415 18 13.8273 18C14.756 18 15.5019 17.6792 16.1099 17.0191C16.1136 17.0153 16.1211 17.0079 16.1248 17.0004C16.3411 16.7393 16.5873 16.5044 16.8447 16.2545C17.02 16.0866 17.199 15.9113 17.3706 15.7323C18.165 14.9043 18.165 13.8525 17.3631 13.0506L15.1215 10.809C14.7411 10.4136 14.286 10.2047 13.8086 10.2047C13.3312 10.2047 12.8724 10.4136 12.4808 10.8052L11.1455 12.1405C11.0224 12.0696 10.8956 12.0062 10.7763 11.9465C10.6271 11.8719 10.4891 11.8011 10.366 11.7228C9.15009 10.9507 8.04607 9.94364 6.99054 8.6494C6.45718 7.97431 6.09912 7.40738 5.84922 6.82926C6.19982 6.51223 6.52805 6.18027 6.84508 5.85578C6.95697 5.74016 7.0726 5.62453 7.18822 5.50891C7.59104 5.10609 7.80737 4.63987 7.80737 4.16618C7.80737 3.6925 7.59477 3.22627 7.18822 2.82346L6.07674 1.71198C5.9462 1.58143 5.82311 1.45462 5.6963 1.32408C5.45013 1.07045 5.19278 0.809366 4.93915 0.574389C4.55498 0.197679 4.10368 0 3.62626 0C3.15258 0 2.69754 0.197679 2.29846 0.578119L0.903512 1.97306C0.396259 2.48031 0.109065 3.09573 0.0493881 3.80812C-0.021478 4.69954 0.142633 5.64691 0.56783 6.79196C1.22054 8.56361 2.20521 10.2085 3.66729 11.9652ZM0.959459 3.88645C1.00422 3.39039 1.19444 2.97638 1.5525 2.61832L2.93998 1.23083C3.15631 1.02196 3.39502 0.9138 3.62626 0.9138C3.85378 0.9138 4.08503 1.02196 4.29763 1.23829C4.54752 1.46954 4.7825 1.71198 5.03613 1.96933C5.16294 2.09988 5.29348 2.23042 5.42403 2.36469L6.5355 3.47617C6.76675 3.70742 6.88611 3.9424 6.88611 4.17364C6.88611 4.40489 6.76675 4.63987 6.5355 4.87111C6.41988 4.98674 6.30426 5.10609 6.18863 5.22172C5.84176 5.57232 5.51727 5.90427 5.15921 6.2213C5.15175 6.22876 5.14802 6.23249 5.14056 6.23995C4.83099 6.54952 4.87948 6.84418 4.95407 7.06797C4.9578 7.07915 4.96153 7.08661 4.96526 7.0978C5.25245 7.78782 5.65154 8.44426 6.27442 9.22752C7.39336 10.6075 8.57197 11.678 9.86994 12.5023C10.0303 12.6067 10.2019 12.6888 10.3623 12.7708C10.5115 12.8454 10.6495 12.9163 10.7726 12.9946C10.7875 13.0021 10.7987 13.0095 10.8136 13.017C10.9367 13.0804 11.056 13.1102 11.1754 13.1102C11.4738 13.1102 11.6677 12.92 11.7311 12.8566L13.1261 11.4617C13.3424 11.2453 13.5774 11.1297 13.8086 11.1297C14.0921 11.1297 14.3233 11.305 14.4688 11.4617L16.7178 13.707C17.1654 14.1546 17.1617 14.6395 16.7067 15.1131C16.55 15.281 16.3859 15.4414 16.2106 15.6092C15.9495 15.8628 15.6772 16.1239 15.4311 16.4186C15.0021 16.8811 14.4912 17.0974 13.831 17.0974C13.7676 17.0974 13.7004 17.0937 13.637 17.0899C12.4137 17.0116 11.2761 16.5342 10.422 16.1276C8.10202 15.005 6.06555 13.4123 4.37595 11.3908C2.98474 9.71612 2.04856 8.15707 1.42941 6.48612C1.04524 5.46042 0.899782 4.63614 0.959459 3.88645Z"/>
</svg>
