<svg style="transform: rotate(180deg);" width="45" height="46" viewBox="0 0 45 46" fill="none" xmlns="http://www.w3.org/2000/svg">
<path d="M19.8422 23.5067C19.7433 23.4079 19.6876 23.2739 19.6875 23.1341V22.8669C19.6891 22.7274 19.7445 22.5939 19.8422 22.4942L23.4563 18.8872C23.5223 18.8206 23.6121 18.7832 23.7059 18.7832C23.7996 18.7832 23.8895 18.8206 23.9555 18.8872L24.4547 19.3864C24.5208 19.4512 24.5581 19.5399 24.5581 19.6325C24.5581 19.7251 24.5208 19.8138 24.4547 19.8786L21.3258 23.0005L24.4547 26.1224C24.5212 26.1884 24.5587 26.2782 24.5587 26.372C24.5587 26.4657 24.5212 26.5556 24.4547 26.6216L23.9555 27.1138C23.8895 27.1803 23.7996 27.2177 23.7059 27.2177C23.6121 27.2177 23.5223 27.1803 23.4563 27.1138L19.8422 23.5067Z"/>
<rect x="0.5" y="1" width="44" height="44" rx="22"/>
</svg>
