<svg style="width:0; height:0; display: none;">
<!-- icon-twitter -->
<svg id="icon-twitter" viewBox="0 0 25 25" xmlns="http://www.w3.org/2000/svg">
<path d="M24.8567 4.60851C24.7295 4.48123 24.5173 4.43879 24.3475 4.48123L23.4988 4.77829C24.0081 4.18423 24.3475 3.54773 24.5597 2.95367C24.6446 2.7415 24.6021 2.57178 24.4748 2.44445C24.3475 2.31716 24.1353 2.27472 23.9656 2.35956C22.7775 2.86878 21.7591 3.29311 20.9104 3.54768C20.9104 3.59012 20.8679 3.54768 20.8255 3.54768C20.1466 3.16579 18.4917 2.31712 17.3035 2.31712C14.2908 2.35956 11.8721 4.90557 11.8721 8.00319V8.17291C7.45901 7.32425 5.04033 6.05124 2.40944 3.29307L1.9852 2.86873L1.73059 3.37795C0.287864 6.13613 1.30626 8.63969 2.96115 10.337C2.19737 10.2098 1.68815 9.95514 1.22137 9.57325C1.05165 9.44597 0.839479 9.40352 0.627312 9.53081C0.457588 9.61569 0.372702 9.87025 0.415145 10.0824C1.0092 12.0768 2.49437 13.6893 4.10683 14.6652C3.34304 14.6652 2.70654 14.5803 2.07004 14.156C1.90032 14.0711 1.64571 14.0711 1.47598 14.1984C1.30626 14.3258 1.22137 14.5379 1.30626 14.7501C2.07004 16.9142 3.55521 18.0598 5.93149 18.3569C4.70093 19.0783 3.08848 19.6723 0.584918 19.7148C0.330307 19.7148 0.11814 19.8845 0.0333023 20.0967C-0.0515842 20.3513 0.0333023 20.5635 0.203026 20.7332C1.73064 21.9637 5.12527 22.6851 9.32617 22.6851C16.7944 22.6851 22.9048 16.0231 22.9048 7.83347V7.70619C23.8384 7.23941 24.6022 6.3483 24.9841 5.11773C25.0265 4.94796 24.984 4.73579 24.8567 4.60851ZM22.3107 7.02719L22.0561 7.11208V7.83347C22.0561 15.5563 16.3276 21.8365 9.32612 21.8365C5.46467 21.8365 2.87627 21.2 1.47598 20.521C4.40388 20.3088 6.10122 19.3753 7.41667 18.3569L8.4775 17.5931H7.2045C4.78582 17.5931 3.30065 16.9142 2.45198 15.3017C3.21576 15.5563 4.02199 15.5563 4.9131 15.5139C5.25255 15.4714 5.59205 15.4714 5.93149 15.4714L6.05878 14.6228C4.44632 14.156 2.53682 12.7133 1.60326 10.7614C2.45193 11.1433 3.38544 11.2281 4.23411 11.2281H5.54955L4.48877 10.4643C3.59765 9.82781 0.966809 7.57886 2.23981 4.3539C4.95554 7.02719 7.544 8.25775 12.2116 9.10642L12.7208 9.19131V8.00319C12.7208 5.37235 14.7576 3.20823 17.3036 3.16579C18.2796 3.12334 19.8921 4.01445 20.3588 4.26907C20.6134 4.39635 20.868 4.43879 21.1226 4.35395C21.7591 4.14178 22.5229 3.84473 23.3716 3.50528C22.9897 4.14178 22.4804 4.73584 21.8015 5.28751C21.6318 5.41479 21.5894 5.6694 21.6743 5.88157C21.7592 6.09373 22.0137 6.17862 22.2259 6.09373L23.8808 5.54212C23.5837 6.09368 23.1169 6.73019 22.3107 7.02719Z"/>
</svg>
<!-- icon-youtube -->
<svg id="icon-youtube" viewBox="0 0 25 25" xmlns="http://www.w3.org/2000/svg">
<path d="M24.7496 7.1992C24.7496 7.11571 24.4992 5.27935 23.7062 4.40289C22.7462 3.35951 21.7029 3.2343 21.1603 3.19253H20.9934C17.6127 2.94211 12.5627 2.90039 12.4792 2.90039C12.4375 2.90039 7.34564 2.94211 4.00672 3.27602H3.88152C3.29714 3.31774 2.25375 3.44295 1.33557 4.48633C0.500834 5.36279 0.250417 7.24092 0.250417 7.32441C0.250417 7.32441 0 9.45296 0 11.5815V13.5431C0 15.6299 0.250417 17.7585 0.250417 17.8002C0.250417 17.8837 0.500834 19.7201 1.29381 20.5965C2.17027 21.5982 3.21365 21.7234 3.88147 21.8069C4.00668 21.8069 4.09016 21.8069 4.21537 21.8486C6.13522 22.0155 12.2287 22.099 12.4791 22.099C12.5209 22.099 17.6127 22.099 20.9933 21.7234H21.1185C21.7029 21.6817 22.7462 21.5565 23.6644 20.513C24.4992 19.6366 24.7496 17.7584 24.7496 17.675C24.7496 17.675 25 15.5464 25 13.4179V11.4563C25 9.36947 24.7496 7.24092 24.7496 7.1992ZM24.1653 13.5014C24.1653 15.5882 23.9148 17.675 23.9148 17.675C23.8314 18.1341 23.5809 19.4696 23.0384 20.0539C22.3288 20.8887 21.4942 20.9721 21.035 21.0139H20.9098C17.5709 21.2643 12.5209 21.2643 12.4791 21.2643C12.4374 21.2643 6.17699 21.1808 4.34058 20.9721C4.21537 20.9721 4.09016 20.9304 3.96496 20.9304C3.38063 20.8887 2.54594 20.7635 1.87813 20.0122C1.37729 19.4697 1.08516 18.1341 1.04339 17.675C1.04339 17.6333 0.792972 15.5465 0.792972 13.5014V11.5398C0.792972 9.45296 1.04339 7.36618 1.04339 7.36618C1.08511 6.90707 1.37729 5.57154 1.87813 4.98722C2.62938 4.15248 3.42235 4.06899 3.92319 4.02727H4.0484C7.38731 3.77685 12.4374 3.73513 12.4791 3.73513C12.5208 3.73513 17.5709 3.77685 20.9098 4.02727H21.0767C21.5358 4.06899 22.3705 4.15248 23.0801 4.98722C23.5809 5.57154 23.8313 6.90707 23.9148 7.36618C23.9565 7.44967 24.1652 9.53645 24.1652 11.5398L24.1653 13.5014Z"/>
<path d="M17.6965 12.541L9.76667 7.90832C9.64146 7.82483 9.47453 7.82483 9.34932 7.90832C9.22411 7.99181 9.14062 8.11702 9.14062 8.28395V17.3407C9.14062 17.5076 9.22411 17.6328 9.34932 17.7163C9.43281 17.758 9.47453 17.758 9.55802 17.758C9.64151 17.758 9.68323 17.758 9.76672 17.7163L17.6966 13.2923C17.8218 13.2088 17.9053 13.0836 17.9053 12.9167C17.9053 12.7497 17.8217 12.6245 17.6965 12.541ZM9.97537 16.6312V8.99343L16.6531 12.9166L9.97537 16.6312Z"/>
</svg>
<!-- icon-calendar -->
<svg id="icon-calendar" viewBox="0 0 18 18" xmlns="http://www.w3.org/2000/svg">
<path d="M15.6797 1.40625H14.0625V0.5625C14.0625 0.251859 13.8107 0 13.5 0C13.1893 0 12.9375 0.251859 12.9375 0.5625V1.40625H5.0625V0.5625C5.0625 0.251859 4.81068 0 4.5 0C4.18932 0 3.9375 0.251859 3.9375 0.5625V1.40625H2.32031C1.04087 1.40625 0 2.44712 0 3.72656V15.6797C0 16.9591 1.04087 18 2.32031 18H15.6797C16.9591 18 18 16.9591 18 15.6797V3.72656C18 2.44712 16.9591 1.40625 15.6797 1.40625ZM2.32031 2.53125H3.9375V3.09375C3.9375 3.40439 4.18932 3.65625 4.5 3.65625C4.81068 3.65625 5.0625 3.40439 5.0625 3.09375V2.53125H12.9375V3.09375C12.9375 3.40439 13.1893 3.65625 13.5 3.65625C13.8107 3.65625 14.0625 3.40439 14.0625 3.09375V2.53125H15.6797C16.3388 2.53125 16.875 3.06745 16.875 3.72656V5.0625H1.125V3.72656C1.125 3.06745 1.6612 2.53125 2.32031 2.53125ZM15.6797 16.875H2.32031C1.6612 16.875 1.125 16.3388 1.125 15.6797V6.1875H16.875V15.6797C16.875 16.3388 16.3388 16.875 15.6797 16.875Z"/>
</svg>
<!-- icon-facebook -->
<svg id="icon-facebook"  viewBox="0 0 25 25"  xmlns="http://www.w3.org/2000/svg">
<path d="M17.5364 4.46882H19.9826V0.00271826H15.5371C15.1662 -0.0127123 10.6456 -0.0991229 9.47391 4.36904C9.45694 4.41585 9.08249 5.47849 9.08249 7.96075L5.01758 7.97309V12.6573L9.08763 12.6455V25.0007H15.3046V12.6563H19.4194V7.95972H15.3046V6.48199C15.3046 5.56336 15.6919 4.46882 17.5364 4.46882ZM18.3907 8.98791V11.627H14.2759V23.9714H10.1163V11.6137L6.04628 11.6255V8.99871L10.1271 8.98688L10.1163 8.46378C10.0628 5.83442 10.4378 4.72857 10.4548 4.67559C11.466 0.827222 15.3272 1.02062 15.4928 1.0309L18.9539 1.03193V3.44064H17.5364C15.1328 3.44064 14.2764 5.01146 14.2764 6.48148V8.98791H18.3907Z" />
</svg>
<!-- icon-instagram -->
<svg id="icon-instagram" viewBox="0 0 25 25" xmlns="http://www.w3.org/2000/svg">
<path d="M6.73398 22.9173H18.2673C20.8298 22.9173 22.9173 20.8298 22.9173 18.2673V6.73398C22.9173 4.17148 20.8298 2.08398 18.2673 2.08398H6.73398C4.17148 2.08398 2.08398 4.17148 2.08398 6.73398V18.2673C2.08398 20.8298 4.17148 22.9173 6.73398 22.9173ZM2.91732 6.73398C2.91732 4.62982 4.62982 2.91732 6.73398 2.91732H18.2673C20.3715 2.91732 22.084 4.62982 22.084 6.73398V18.2673C22.084 20.3715 20.3715 22.084 18.2673 22.084H6.73398C4.62982 22.084 2.91732 20.3715 2.91732 18.2673V6.73398Z" />
<path d="M12.5 19.25C16.2208 19.25 19.25 16.2208 19.25 12.5C19.25 8.77917 16.2208 5.75 12.5 5.75C8.77917 5.75 5.75 8.77917 5.75 12.5C5.75 16.2208 8.77917 19.25 12.5 19.25ZM12.5 6.58333C15.7625 6.58333 18.4167 9.2375 18.4167 12.5C18.4167 15.7625 15.7625 18.4167 12.5 18.4167C9.2375 18.4167 6.58333 15.7625 6.58333 12.5C6.58333 9.2375 9.2375 6.58333 12.5 6.58333Z" />
<path d="M12.4988 16.3248C14.6072 16.3248 16.3238 14.6081 16.3238 12.4998C16.3238 10.3915 14.6072 8.6748 12.4988 8.6748C10.3905 8.6748 8.67383 10.3915 8.67383 12.4998C8.67383 14.6081 10.3905 16.3248 12.4988 16.3248ZM12.4988 9.50814C14.1488 9.50814 15.4905 10.8498 15.4905 12.4998C15.4905 14.1498 14.1488 15.4915 12.4988 15.4915C10.8488 15.4915 9.50716 14.1498 9.50716 12.4998C9.50716 10.8498 10.8488 9.50814 12.4988 9.50814Z" />
<path d="M19.3918 6.97943C20.1793 6.97943 20.821 6.33776 20.821 5.55026C20.821 4.76276 20.1793 4.12109 19.3918 4.12109C18.6043 4.12109 17.9668 4.76276 17.9668 5.55026C17.9627 6.33776 18.6043 6.97943 19.3918 6.97943ZM19.3918 4.95859C19.721 4.95859 19.9877 5.22526 19.9877 5.55443C19.9877 5.88359 19.721 6.15026 19.3918 6.15026C19.0627 6.15026 18.8002 5.88359 18.8002 5.55443C18.8002 5.22526 19.0627 4.95859 19.3918 4.95859Z" />
</svg>
<!-- icon-link-arrow -->
<svg id="icon-link-arrow" xmlns="http://www.w3.org/2000/svg" viewBox="0 0 20 20">
<path d="M0.930176 9.01746C0.515962 9.01746 0.180176 9.35324 0.180176 9.76746C0.180176 10.1817 0.515962 10.5175 0.930176 10.5175L0.930176 9.01746ZM19.6 10.2978C19.8929 10.0049 19.8929 9.53002 19.6 9.23713L14.8271 4.46416C14.5342 4.17126 14.0593 4.17126 13.7664 4.46416C13.4735 4.75705 13.4735 5.23192 13.7664 5.52482L18.0091 9.76746L13.7664 14.0101C13.4735 14.303 13.4735 14.7779 13.7664 15.0708C14.0593 15.3637 14.5342 15.3637 14.8271 15.0708L19.6 10.2978ZM0.930176 10.5175L19.0697 10.5175L19.0697 9.01746L0.930176 9.01746L0.930176 10.5175Z"/>
</svg>
<!-- icon-linkedin -->
<svg id="icon-linkedin" viewBox="0 0 25 25"  xmlns="http://www.w3.org/2000/svg">
<path d="M3.375 0.208984C2.45835 0.208984 1.625 0.542334 1 1.16733C0.33335 1.83398 0 2.66729 0 3.54229C0 4.45894 0.375 5.29229 1 5.91729C1.625 6.54229 2.5 6.91729 3.33335 6.87564C3.33335 6.87564 3.375 6.87564 3.4167 6.87564C4.25005 6.87564 5.0417 6.54229 5.6667 5.91729C6.2917 5.29229 6.6667 4.45894 6.6667 3.54229C6.70835 2.66729 6.33335 1.83394 5.70835 1.20894C5.08335 0.542285 4.25 0.208984 3.375 0.208984ZM5.08335 5.33398C4.625 5.79233 4 6.08398 3.33335 6.04233C2.70835 6.04233 2.0417 5.79233 1.58335 5.33398C1.08335 4.87564 0.83335 4.20898 0.83335 3.54233C0.83335 2.87568 1.08335 2.25068 1.58335 1.75068C2.0417 1.29233 2.6667 1.04233 3.375 1.04233C4 1.04233 4.625 1.29233 5.08335 1.75068C5.58335 2.25068 5.83335 2.87568 5.83335 3.54233C5.83335 4.20898 5.58335 4.87564 5.08335 5.33398Z"/>
<path d="M4.99937 7.70898H1.62437C0.957715 7.70898 0.416016 8.25063 0.416016 8.95898V23.5423C0.416016 24.209 0.999365 24.7923 1.66602 24.7923H4.99937C5.66602 24.7923 6.24937 24.209 6.24937 23.584V8.95898C6.24937 8.29228 5.66602 7.70898 4.99937 7.70898ZM5.41602 23.584C5.41602 23.7923 5.20767 23.959 4.99937 23.959H1.66602C1.45767 23.959 1.24937 23.7506 1.24937 23.5423V8.95898C1.24937 8.75063 1.41602 8.54233 1.62437 8.54233H4.99937C5.20772 8.54233 5.41602 8.75068 5.41602 8.95898V23.584Z"/>
<path d="M19.168 7.29297H18.293C16.668 7.29297 15.1263 8.00132 14.1263 9.12632V8.54297C14.1263 8.12632 13.7097 7.70962 13.293 7.70962H9.12632C8.75132 7.70962 8.29297 8.04297 8.29297 8.50127V24.0429C8.29297 24.5013 8.75132 24.7929 9.12632 24.7929H13.7097C14.0847 24.7929 14.543 24.5013 14.543 24.0429V15.0429C14.543 13.6679 15.543 12.5846 16.8347 12.5846C17.5013 12.5846 18.1263 12.8346 18.5847 13.2929C19.0013 13.6679 19.168 14.2513 19.168 15.0013V23.9596C19.168 24.3763 19.5847 24.793 20.0014 24.793H24.168C24.5847 24.793 25.0014 24.3763 25.0014 23.9596V13.2096C25.0013 9.87632 22.4597 7.29297 19.168 7.29297ZM24.168 23.918L24.1263 23.9596H20.043L20.0013 15.0013C20.0013 14.0013 19.7513 13.2513 19.2097 12.7097C18.5847 12.0847 17.7513 11.7513 16.8763 11.7513C15.1263 11.793 13.7513 13.2097 13.7513 15.043V23.9596H9.16797V8.54297H13.293L13.3346 8.58462V11.2096L14.4596 10.0846L14.5013 10.043C15.3346 8.87632 16.7929 8.12632 18.3346 8.12632H19.2096C22.0013 8.12632 24.168 10.3763 24.168 13.2097V23.918Z"/>
</svg>
<!-- icon-mail -->
<svg id="icon-mail" viewBox="0 0 18 18" xmlns="http://www.w3.org/2000/svg">
<path d="M16.225 3.24326H1.77482C0.795059 3.24435 0.00109312 4.03831 0 5.01807V12.9819C0.00109312 13.9616 0.795059 14.7557 1.77482 14.7567H16.225C17.2048 14.7557 17.9989 13.9617 18 12.9819V5.01807C17.9989 4.03831 17.2048 3.24435 16.225 3.24326ZM12.1272 9L17.2451 4.68937C17.2794 4.79555 17.2969 4.90647 17.2968 5.01804V12.9819C17.2969 13.0935 17.2794 13.2044 17.2451 13.3106L12.1272 9ZM16.225 3.94638C16.4372 3.94616 16.6445 4.00924 16.8206 4.12755L8.99998 10.7147L1.17933 4.12755C1.35539 4.00924 1.56275 3.94616 1.77485 3.94642L16.225 3.94638ZM0.754942 13.3107C0.720581 13.2045 0.703128 13.0936 0.703165 12.982V5.01807C0.703128 4.9065 0.720618 4.79555 0.754942 4.68937L5.87276 9L0.754942 13.3107ZM1.77482 14.0537C1.56275 14.0539 1.35539 13.9909 1.17933 13.8727L6.41848 9.45984L8.77349 11.4433C8.90433 11.5536 9.09559 11.5536 9.22644 11.4433L11.5814 9.4598L16.8206 13.8725C16.6445 13.9908 16.4371 14.0539 16.225 14.0536H1.77482V14.0537Z"/>
</svg>
<!-- icon-down-arrow -->
<svg id="icon-down-arrow" viewBox="0 0 20 20" xmlns="http://www.w3.org/2000/svg">
<path d="M10 13.75C9.8402 13.75 9.6802 13.6889 9.55816 13.5669L3.30816 7.31691C3.06395 7.0727 3.06395 6.67723 3.30816 6.43316C3.55238 6.1891 3.94785 6.18895 4.19191 6.43316L10 12.2413L15.8082 6.43316C16.0524 6.18895 16.4479 6.18895 16.6919 6.43316C16.936 6.67738 16.9361 7.07285 16.6919 7.31691L10.4419 13.5669C10.3199 13.6889 10.1599 13.75 10 13.75Z"/>
</svg>
<!-- icon-pagination-arrow-left -->
<svg id="icon-pagination-arrow-left" viewBox="0 0 45 46" fill="none" xmlns="http://www.w3.org/2000/svg">
<path d="M19.8422 23.5067C19.7433 23.4079 19.6876 23.2739 19.6875 23.1341V22.8669C19.6891 22.7274 19.7445 22.5939 19.8422 22.4942L23.4563 18.8872C23.5223 18.8206 23.6121 18.7832 23.7059 18.7832C23.7996 18.7832 23.8895 18.8206 23.9555 18.8872L24.4547 19.3864C24.5208 19.4512 24.5581 19.5399 24.5581 19.6325C24.5581 19.7251 24.5208 19.8138 24.4547 19.8786L21.3258 23.0005L24.4547 26.1224C24.5212 26.1884 24.5587 26.2782 24.5587 26.372C24.5587 26.4657 24.5212 26.5556 24.4547 26.6216L23.9555 27.1138C23.8895 27.1803 23.7996 27.2177 23.7059 27.2177C23.6121 27.2177 23.5223 27.1803 23.4563 27.1138L19.8422 23.5067Z"/>
<rect x="0.5" y="1" width="44" height="44" rx="22"/>
</svg>
<!-- icon-pagination-arrow-right -->
<svg id="icon-pagination-arrow-right" style="transform: rotate(180deg);" viewBox="0 0 45 46" fill="none" xmlns="http://www.w3.org/2000/svg">
<path d="M19.8422 23.5067C19.7433 23.4079 19.6876 23.2739 19.6875 23.1341V22.8669C19.6891 22.7274 19.7445 22.5939 19.8422 22.4942L23.4563 18.8872C23.5223 18.8206 23.6121 18.7832 23.7059 18.7832C23.7996 18.7832 23.8895 18.8206 23.9555 18.8872L24.4547 19.3864C24.5208 19.4512 24.5581 19.5399 24.5581 19.6325C24.5581 19.7251 24.5208 19.8138 24.4547 19.8786L21.3258 23.0005L24.4547 26.1224C24.5212 26.1884 24.5587 26.2782 24.5587 26.372C24.5587 26.4657 24.5212 26.5556 24.4547 26.6216L23.9555 27.1138C23.8895 27.1803 23.7996 27.2177 23.7059 27.2177C23.6121 27.2177 23.5223 27.1803 23.4563 27.1138L19.8422 23.5067Z"/>
<rect x="0.5" y="1" width="44" height="44" rx="22"/>
</svg>
<!-- icon-phone -->
<svg id="icon-phone" viewBox="0 0 18 18" xmlns="http://www.w3.org/2000/svg">
<path d="M3.66729 11.9652C5.44267 14.0874 7.57985 15.7584 10.0191 16.9407C10.9479 17.3809 12.1899 17.903 13.5736 17.9925C13.6594 17.9963 13.7415 18 13.8273 18C14.756 18 15.5019 17.6792 16.1099 17.0191C16.1136 17.0153 16.1211 17.0079 16.1248 17.0004C16.3411 16.7393 16.5873 16.5044 16.8447 16.2545C17.02 16.0866 17.199 15.9113 17.3706 15.7323C18.165 14.9043 18.165 13.8525 17.3631 13.0506L15.1215 10.809C14.7411 10.4136 14.286 10.2047 13.8086 10.2047C13.3312 10.2047 12.8724 10.4136 12.4808 10.8052L11.1455 12.1405C11.0224 12.0696 10.8956 12.0062 10.7763 11.9465C10.6271 11.8719 10.4891 11.8011 10.366 11.7228C9.15009 10.9507 8.04607 9.94364 6.99054 8.6494C6.45718 7.97431 6.09912 7.40738 5.84922 6.82926C6.19982 6.51223 6.52805 6.18027 6.84508 5.85578C6.95697 5.74016 7.0726 5.62453 7.18822 5.50891C7.59104 5.10609 7.80737 4.63987 7.80737 4.16618C7.80737 3.6925 7.59477 3.22627 7.18822 2.82346L6.07674 1.71198C5.9462 1.58143 5.82311 1.45462 5.6963 1.32408C5.45013 1.07045 5.19278 0.809366 4.93915 0.574389C4.55498 0.197679 4.10368 0 3.62626 0C3.15258 0 2.69754 0.197679 2.29846 0.578119L0.903512 1.97306C0.396259 2.48031 0.109065 3.09573 0.0493881 3.80812C-0.021478 4.69954 0.142633 5.64691 0.56783 6.79196C1.22054 8.56361 2.20521 10.2085 3.66729 11.9652ZM0.959459 3.88645C1.00422 3.39039 1.19444 2.97638 1.5525 2.61832L2.93998 1.23083C3.15631 1.02196 3.39502 0.9138 3.62626 0.9138C3.85378 0.9138 4.08503 1.02196 4.29763 1.23829C4.54752 1.46954 4.7825 1.71198 5.03613 1.96933C5.16294 2.09988 5.29348 2.23042 5.42403 2.36469L6.5355 3.47617C6.76675 3.70742 6.88611 3.9424 6.88611 4.17364C6.88611 4.40489 6.76675 4.63987 6.5355 4.87111C6.41988 4.98674 6.30426 5.10609 6.18863 5.22172C5.84176 5.57232 5.51727 5.90427 5.15921 6.2213C5.15175 6.22876 5.14802 6.23249 5.14056 6.23995C4.83099 6.54952 4.87948 6.84418 4.95407 7.06797C4.9578 7.07915 4.96153 7.08661 4.96526 7.0978C5.25245 7.78782 5.65154 8.44426 6.27442 9.22752C7.39336 10.6075 8.57197 11.678 9.86994 12.5023C10.0303 12.6067 10.2019 12.6888 10.3623 12.7708C10.5115 12.8454 10.6495 12.9163 10.7726 12.9946C10.7875 13.0021 10.7987 13.0095 10.8136 13.017C10.9367 13.0804 11.056 13.1102 11.1754 13.1102C11.4738 13.1102 11.6677 12.92 11.7311 12.8566L13.1261 11.4617C13.3424 11.2453 13.5774 11.1297 13.8086 11.1297C14.0921 11.1297 14.3233 11.305 14.4688 11.4617L16.7178 13.707C17.1654 14.1546 17.1617 14.6395 16.7067 15.1131C16.55 15.281 16.3859 15.4414 16.2106 15.6092C15.9495 15.8628 15.6772 16.1239 15.4311 16.4186C15.0021 16.8811 14.4912 17.0974 13.831 17.0974C13.7676 17.0974 13.7004 17.0937 13.637 17.0899C12.4137 17.0116 11.2761 16.5342 10.422 16.1276C8.10202 15.005 6.06555 13.4123 4.37595 11.3908C2.98474 9.71612 2.04856 8.15707 1.42941 6.48612C1.04524 5.46042 0.899782 4.63614 0.959459 3.88645Z"/>
</svg>
<!-- icon-pinterest -->
<svg id="icon-pinterest"  viewBox="0 0 25 25" xmlns="http://www.w3.org/2000/svg">
<path fill-rule="evenodd" clip-rule="evenodd" d="M12.4983 24.1642C11.5612 24.1642 10.6287 24.0512 9.71833 23.8279C10.1783 23.035 10.5054 22.2904 10.6929 21.6087C10.7908 21.2529 11.1229 19.9487 11.3429 19.0812C12.0267 19.6917 13.0733 20.0983 14.0925 20.0983C18.1121 20.0983 21.0296 16.4408 21.0296 11.4017C21.0296 7.79458 18.0121 4.06333 12.9629 4.06333C9.50333 4.06333 7.37333 5.48292 6.19625 6.67417C4.74458 8.14333 3.91167 10.0946 3.91167 12.0279C3.91167 14.4621 4.93333 16.3317 6.64333 17.0283C7.15458 17.2387 7.66958 16.9787 7.80958 16.4471C7.85375 16.2821 7.94333 15.9221 8.00833 15.6637L8.05375 15.4808C8.185 14.9983 8.07583 14.7571 7.7975 14.43C7.32167 13.8667 7.1 13.1992 7.1 12.3292C7.1 8.84208 9.94958 6.96042 12.6304 6.96042C15.4746 6.96042 17.2408 8.57417 17.2408 11.1721C17.2408 14.5962 15.7725 17.1783 13.8263 17.1783C13.3183 17.1783 12.8625 16.9704 12.5763 16.6079C12.3058 16.2671 12.2175 15.8254 12.3267 15.3646C12.4546 14.8225 12.6292 14.2562 12.7987 13.7079C13.11 12.6996 13.4042 11.7479 13.4042 10.9821C13.4042 9.64833 12.5817 8.7525 11.3583 8.7525C9.81708 8.7525 8.61 10.3087 8.61 12.2958C8.61 13.2379 8.855 13.9517 8.97583 14.2462C8.7725 15.1079 7.66458 19.8037 7.45333 20.6958C7.3025 21.3354 7.22458 22.0746 7.22 22.9012C3.31958 20.9208 0.833333 16.9075 0.833333 12.4992C0.833333 6.06625 6.06583 0.833333 12.4983 0.833333C18.9304 0.833333 24.1629 6.06625 24.1629 12.4992C24.1629 18.9312 18.9304 24.1642 12.4983 24.1642ZM12.4983 0C5.60667 0 0 5.60708 0 12.4992C0 17.4587 2.93667 21.9517 7.48167 23.9462C7.535 23.9696 7.59208 23.9812 7.64875 23.9812C7.65208 23.9817 7.655 23.9817 7.65708 23.9812C7.8875 23.9812 8.07375 23.7946 8.07375 23.5646C8.07375 23.5304 8.06958 23.4971 8.0625 23.4654C8.0275 22.4717 8.09542 21.6042 8.26417 20.8875C8.49667 19.9046 9.81875 14.3017 9.81875 14.3017C9.84125 14.2067 9.82958 14.1067 9.78542 14.0192C9.78208 14.0125 9.44333 13.3242 9.44333 12.2958C9.44333 10.7758 10.2846 9.58583 11.3583 9.58583C12.4833 9.58583 12.5708 10.6546 12.5708 10.9821C12.5708 11.6221 12.295 12.5158 12.0029 13.4617C11.8296 14.0233 11.65 14.6037 11.5158 15.1729C11.3467 15.8867 11.4913 16.58 11.9221 17.125C12.3683 17.6887 13.0621 18.0117 13.8263 18.0117C16.2479 18.0117 18.0742 15.0717 18.0742 11.1721C18.0742 8.1075 15.9375 6.12708 12.6304 6.12708C9.0025 6.12708 6.26667 8.79333 6.26667 12.3292C6.26667 13.3921 6.55917 14.2554 7.16167 14.9687C7.25833 15.0821 7.275 15.1183 7.27708 15.1229C7.2775 15.1279 7.27833 15.1579 7.2475 15.2696L7.19958 15.4612C7.13583 15.7162 7.04708 16.0708 7.00375 16.2346C6.99958 16.2504 6.99542 16.2617 6.99375 16.2683C6.98583 16.2667 6.97375 16.2633 6.95875 16.2571C5.55167 15.6837 4.745 14.1421 4.745 12.0279C4.745 7.10875 9.55083 4.89667 12.9629 4.89667C17.4904 4.89667 20.1962 8.20417 20.1962 11.4017C20.1962 16.0312 17.6863 19.265 14.0925 19.265C12.8958 19.265 11.84 18.6137 11.5104 17.9837C11.4304 17.8308 11.2621 17.7425 11.0925 17.7633C10.9208 17.7837 10.7796 17.9075 10.7371 18.0754C10.7304 18.1029 10.035 20.8608 9.88958 21.3875C9.68625 22.1254 9.29375 22.9587 8.72292 23.8637C8.65333 23.9742 8.63958 24.1108 8.68583 24.2329C8.73167 24.3554 8.8325 24.4487 8.9575 24.4854C10.1092 24.8254 11.3 24.9975 12.4983 24.9975C19.3896 24.9975 24.9963 19.3908 24.9963 12.4992C24.9963 5.60708 19.3896 0 12.4983 0Z" />
</svg>
</svg>




